<svg version="1.2" width="24px" height="24px" viewBox="0 0 850 850" preserveAspectRatio="xMidYMid" fill-rule="evenodd" stroke-width="28.222" stroke-linejoin="round" xmlns="http://www.w3.org/2000/svg"><defs class="ClipPathGroup"><clipPath id="a" clipPathUnits="userSpaceOnUse"><path d="M0 0h850v850H0z"/></clipPath></defs><g class="SlideGroup"><g class="Slide" clip-path="url(#a)"><g class="Page"><g class="com.sun.star.drawing.CustomShape"><path class="BoundingBox" fill="none" d="M0 0h851v851H0z"/></g><g class="Group"><g class="com.sun.star.drawing.CustomShape"><path class="BoundingBox" fill="none" d="M169 619h505v121H169z"/><path fill="#666" d="M421 619h252v119H170V619h251z"/></g><g class="com.sun.star.drawing.CustomShape"><path class="BoundingBox" fill="none" d="M168 96h502v467H168z"/><path fill="#666" d="M297 96v236H168l250 230 251-230H539V96H297z"/></g><g class="com.sun.star.drawing.CustomShape"><path class="BoundingBox" fill="none" d="M242 141h354v386H242z"/><path fill="#FFF" d="M331 141v218h-89l176 167 177-167h-90V141H331z"/></g><g class="com.sun.star.drawing.CustomShape"><path class="BoundingBox" fill="none" d="M196 619h448v80H196z"/><path fill="#FFF" d="M420 619h223v78H197v-78h223z"/></g></g></g></g></g></svg>
