<svg version="1.2" width="50mm" height="50mm" viewBox="0 0 5000 5000" preserveAspectRatio="xMidYMid" fill-rule="evenodd" stroke-width="28.222" stroke-linejoin="round" xmlns="http://www.w3.org/2000/svg"><defs class="ClipPathGroup"><clipPath id="a" clipPathUnits="userSpaceOnUse"><path d="M0 0h5000v5000H0z"/></clipPath></defs><g class="SlideGroup"><g class="Slide" clip-path="url(#a)"><g class="Page"><g class="com.sun.star.drawing.EllipseShape"><path class="BoundingBox" fill="none" d="M3150 450h751v1501h-751z"/><path d="M3150 450c132 0 261 35 375 100 114 66 209 161 275 275 65 114 100 243 100 375s-35 261-100 375c-66 114-161 209-275 275-114 65-243 100-375 100V450z"/></g><g class="com.sun.star.drawing.EllipseShape"><path class="BoundingBox" fill="none" d="M1049 450h752v1502h-752z"/><path d="M1800 1950c-132 0-261-35-375-100-114-66-209-161-275-275-65-114-100-243-100-375s35-261 100-375c66-114 161-209 275-275 114-65 243-100 375-100v1500z"/></g><g class="com.sun.star.drawing.CustomShape"><path class="BoundingBox" fill="none" d="M1732 642h502v252h-502z"/><path d="M1806 642c-13 0-26 3-37 10-11 6-21 16-27 27-7 11-10 24-10 37v103c0 13 3 26 10 37 6 11 16 21 27 27 11 7 24 10 37 10h353c13 0 26-3 37-10 11-6 21-16 27-27 7-11 10-24 10-37V716c0-13-3-26-10-37-6-11-16-21-27-27-11-7-24-10-37-10h-353z"/></g><g class="com.sun.star.drawing.CustomShape"><path class="BoundingBox" fill="none" d="M1732 1505h503v252h-503z"/><path d="M1807 1505c-13 0-26 3-37 10-11 6-21 16-27 27-7 11-10 24-10 37v103c0 13 3 26 10 37 6 11 16 21 27 27 11 7 24 10 37 10h353c13 0 26-3 37-10 11-6 21-16 27-27 7-11 10-24 10-37v-103c0-13-3-26-10-37-6-11-16-21-27-27-11-7-24-10-37-10h-353z"/></g><g class="com.sun.star.drawing.CustomShape"><path class="BoundingBox" fill="none" d="M1812 688h339v67h-339z"/><path fill="#DDD" d="M1831 688c-3 0-7 1-9 3-3 1-6 4-7 7-2 2-3 6-3 9v27c0 3 1 7 3 9 1 3 4 6 7 7 2 2 6 3 9 3h299c3 0 7-1 9-3 3-1 6-4 7-7 2-2 3-6 3-9l-1-27h1c0-3-1-7-3-9-1-3-4-6-7-7-2-2-6-3-9-3h-299z"/></g><g class="com.sun.star.drawing.CustomShape"><path class="BoundingBox" fill="none" d="M1813 1551h346v55h-346z"/><path fill="#CCC" d="M1828 1551h1c-3 0-6 1-8 2l-6 6c-1 2-2 5-2 8v22c0 3 1 6 2 8l6 6c2 1 5 2 8 2h313c3 0 6-1 8-2l6-6c1-2 2-5 2-8l-1-23 1 1c0-3-1-6-2-8l-6-6c-2-1-5-2-8-2h-314z"/></g><g class="com.sun.star.drawing.ClosedBezierShape"><path class="BoundingBox" fill="none" d="M3207 532h565v417h-565z"/><path fill="#CCC" d="M3344 533c156 67 367 229 427 415 0 0-139-13-434-164s7-251 7-251z"/></g><g class="com.sun.star.drawing.ClosedBezierShape"><path class="BoundingBox" fill="none" d="M1192 536h518v711h-518z"/><path fill="#DDD" d="M1655 537c-489 262-430 554-463 709l206-154c56-52 156-43 264-304s-7-251-7-251z"/></g><g class="com.sun.star.drawing.ClosedBezierShape"><path class="BoundingBox" fill="none" d="M1001 1899h3001v2753H1001z"/><path d="M1051 3226c31 55 77 100 131 132 40 23 84 38 130 45 4 0 8 2 12 4 5 3 10 8 13 13 3 6 4 11 4 17v1055c0 28 7 55 21 79 13 24 34 44 58 58s52 21 79 21h223c28 0 55-7 79-21s44-34 58-58 22-51 22-79V3436v-2c0-5 1-11 4-16s7-9 12-12c4-2 8-4 12-4 43-8 86-23 124-45 57-33 104-80 137-137 32-56 49-120 49-185v-779c0-61-16-121-46-174s-74-97-127-127c-53-31-113-46-174-46h-523c-61 0-120 15-173 46-53 30-97 74-127 127-31 53-47 113-47 174 0 0 17 915 49 970zm2528-1247c-14-24-33-45-57-58-24-14-51-21-79-21h-270c-28 0-54 8-79 22-23 13-44 33-58 57-7 12-12 25-15 39l-401 1523c-2 5-3 11-3 17 0 11 4 22 9 31 6 10 13 18 23 23 10 6 20 9 32 9h355c6 0 12 1 17 4s9 8 12 13 5 11 5 17v840c0 27 8 54 21 77 14 24 33 44 56 57 24 14 50 20 77 20h167c27 0 55-6 78-20 24-13 43-33 56-57 14-23 21-50 21-77v-840c0-6 1-12 4-17s8-10 13-13 11-4 17-4h356c11 0 22-3 32-9 10-5 18-13 23-23 6-9 9-20 9-31 0-6-1-12-3-17 0 0-411-1550-418-1562z"/></g><g class="com.sun.star.drawing.CustomShape"><path class="BoundingBox" fill="none" d="M2764 2093h855v1335h-855z"/><path fill="#FFD7D7" d="M3591 2120l-41 1-40 2-40 4-40 6-40 7-38 9-39 11-37 12-37 13-36 15-35 17-34 18-33 19-31 20-30 22-29 23-27 24-26 25-24 26-22 27-20 28-19 29-17 30-15 30-13 30-11 32-10 31-7 32-5 32-3 33-1 32 1 32 3 33 5 32 7 32 10 31 11 32 13 30 15 30 17 30 19 29 20 28 22 27 24 26 26 25 27 24 29 23 30 22 31 20 33 19 34 18 35 17 36 15 37 13 37 12 39 11 38 9 40 7 40 6 40 4 40 2 41 1v-320h-20l-20-2-21-2-20-3-19-3-20-5-19-5-19-6-18-7-18-7-18-8-17-9-16-10-16-10-15-11-14-12-14-12-12-12-12-13-11-14-11-14-9-14-9-15-7-15-7-15-5-16-5-16-3-16-3-16-1-16-1-16 1-16 1-16 3-16 3-16 5-16 5-16 7-15 7-15 9-15 9-14 11-14 11-14 12-13 12-12 14-12 14-12 15-11 16-10 16-10 17-9 18-8 18-7 18-7 19-6 19-5 20-5 19-3 20-3 21-2 20-2h20v-320z"/><path fill="none" stroke="#000" stroke-width="53" d="M3591 2120l-41 1-40 2-40 4-40 6-40 7-38 9-39 11-37 12-37 13-36 15-35 17-34 18-33 19-31 20-30 22-29 23-27 24-26 25-24 26-22 27-20 28-19 29-17 30-15 30-13 30-11 32-10 31-7 32-5 32-3 33-1 32 1 32 3 33 5 32 7 32 10 31 11 32 13 30 15 30 17 30 19 29 20 28 22 27 24 26 26 25 27 24 29 23 30 22 31 20 33 19 34 18 35 17 36 15 37 13 37 12 39 11 38 9 40 7 40 6 40 4 40 2 41 1v-320h-20l-20-2-21-2-20-3-19-3-20-5-19-5-19-6-18-7-18-7-18-8-17-9-16-10-16-10-15-11-14-12-14-12-12-12-12-13-11-14-11-14-9-14-9-15-7-15-7-15-5-16-5-16-3-16-3-16-1-16-1-16 1-16 1-16 3-16 3-16 5-16 5-16 7-15 7-15 9-15 9-14 11-14 11-14 12-13 12-12 14-12 14-12 15-11 16-10 16-10 17-9 18-8 18-7 18-7 19-6 19-5 20-5 19-3 20-3 21-2 20-2h20v-320z"/></g><g class="Group"><g class="com.sun.star.drawing.CustomShape"><path class="BoundingBox" fill="none" d="M1845 2473h1183v760H1845z"/><path fill="#B4C7DC" d="M1872 2500l1 36 2 35 4 36 5 35 6 35 8 34 9 34 11 33 12 32 13 32 14 31 16 30 17 29 18 27 19 27 20 25 22 24 22 22 23 22 24 19 24 18 26 17 26 15 26 13 27 12 28 9 27 9 29 6 28 4 28 3 29 1 29-1 28-3 28-4 29-6 27-9 28-9 27-12 26-13 26-15 26-17 24-18 24-19 23-22 22-22 22-24 20-25 19-27 18-27 17-29 16-30 14-31 13-32 12-32 11-33 9-34 8-34 6-35 5-35 4-36 2-35 1-36h-282v18l-1 18-2 17-3 18-3 17-4 18-5 17-5 16-6 16-6 16-8 16-8 15-8 14-9 14-10 13-10 13-10 12-11 11-12 11-12 10-12 9-13 8-13 7-13 7-14 6-13 5-14 4-14 3-14 2-15 2h-28l-15-2-14-2-14-3-14-4-13-5-14-6-13-7-13-7-13-8-12-9-12-10-12-11-11-11-10-12-10-13-10-13-9-14-8-14-8-15-8-16-6-16-6-16-5-16-5-17-4-18-3-17-3-18-2-17-1-18v-18h-282z"/><path fill="none" stroke="#000" stroke-width="53" d="M1872 2500l1 36 2 35 4 36 5 35 6 35 8 34 9 34 11 33 12 32 13 32 14 31 16 30 17 29 18 27 19 27 20 25 22 24 22 22 23 22 24 19 24 18 26 17 26 15 26 13 27 12 28 9 27 9 29 6 28 4 28 3 29 1 29-1 28-3 28-4 29-6 27-9 28-9 27-12 26-13 26-15 26-17 24-18 24-19 23-22 22-22 22-24 20-25 19-27 18-27 17-29 16-30 14-31 13-32 12-32 11-33 9-34 8-34 6-35 5-35 4-36 2-35 1-36h-282v18l-1 18-2 17-3 18-3 17-4 18-5 17-5 16-6 16-6 16-8 16-8 15-8 14-9 14-10 13-10 13-10 12-11 11-12 11-12 10-12 9-13 8-13 7-13 7-14 6-13 5-14 4-14 3-14 2-15 2h-28l-15-2-14-2-14-3-14-4-13-5-14-6-13-7-13-7-13-8-12-9-12-10-12-11-11-11-10-12-10-13-10-13-9-14-8-14-8-15-8-16-6-16-6-16-5-16-5-17-4-18-3-17-3-18-2-17-1-18v-18h-282z"/></g><g class="com.sun.star.drawing.CustomShape"><path class="BoundingBox" fill="none" d="M999 2473h1183v760H999z"/><path fill="#B4C7DC" d="M1026 2500l1 36 2 35 4 36 5 35 6 35 8 34 9 34 11 33 12 32 13 32 14 31 16 30 17 29 18 27 19 27 20 25 22 24 22 22 23 22 24 19 24 18 26 17 26 15 26 13 27 12 28 9 27 9 29 6 28 4 28 3 29 1 29-1 28-3 28-4 29-6 27-9 28-9 27-12 26-13 26-15 26-17 24-18 24-19 23-22 22-22 22-24 20-25 19-27 18-27 17-29 16-30 14-31 13-32 12-32 11-33 9-34 8-34 6-35 5-35 4-36 2-35 1-36h-282v18l-1 18-2 17-3 18-3 17-4 18-5 17-5 16-6 16-6 16-8 16-8 15-8 14-9 14-10 13-10 13-10 12-11 11-12 11-12 10-12 9-13 8-13 7-13 7-14 6-13 5-14 4-14 3-14 2-15 2h-28l-15-2-14-2-14-3-14-4-13-5-14-6-13-7-13-7-13-8-12-9-12-10-12-11-11-11-10-12-10-13-10-13-9-14-8-14-8-15-8-16-6-16-6-16-5-16-5-17-4-18-3-17-3-18-2-17-1-18v-18h-282z"/><path fill="none" stroke="#000" stroke-width="53" d="M1026 2500l1 36 2 35 4 36 5 35 6 35 8 34 9 34 11 33 12 32 13 32 14 31 16 30 17 29 18 27 19 27 20 25 22 24 22 22 23 22 24 19 24 18 26 17 26 15 26 13 27 12 28 9 27 9 29 6 28 4 28 3 29 1 29-1 28-3 28-4 29-6 27-9 28-9 27-12 26-13 26-15 26-17 24-18 24-19 23-22 22-22 22-24 20-25 19-27 18-27 17-29 16-30 14-31 13-32 12-32 11-33 9-34 8-34 6-35 5-35 4-36 2-35 1-36h-282v18l-1 18-2 17-3 18-3 17-4 18-5 17-5 16-6 16-6 16-8 16-8 15-8 14-9 14-10 13-10 13-10 12-11 11-12 11-12 10-12 9-13 8-13 7-13 7-14 6-13 5-14 4-14 3-14 2-15 2h-28l-15-2-14-2-14-3-14-4-13-5-14-6-13-7-13-7-13-8-12-9-12-10-12-11-11-11-10-12-10-13-10-13-9-14-8-14-8-15-8-16-6-16-6-16-5-16-5-17-4-18-3-17-3-18-2-17-1-18v-18h-282z"/></g></g></g></g></g></svg>