<?xml version="1.0" encoding="UTF-8" standalone="no"?>
<!DOCTYPE svg PUBLIC "-//W3C//DTD SVG 1.1//EN"
 "http://www.w3.org/Graphics/SVG/1.1/DTD/svg11.dtd">
<!-- Generated by graphviz version 2.49.3 (0)
 -->
<!-- Title: g Pages: 1 -->
<svg width="763pt" height="332pt"
 viewBox="0.00 0.00 762.50 332.00" xmlns="http://www.w3.org/2000/svg" xmlns:xlink="http://www.w3.org/1999/xlink">
<g id="graph0" class="graph" transform="scale(1 1) rotate(0) translate(4 328)">
<title>g</title>
<polygon fill="white" stroke="transparent" points="-4,4 -4,-328 758.5,-328 758.5,4 -4,4"/>
<!-- 7FFFF656A570 -->
<g id="node1" class="node">
<title>7FFFF656A570</title>
<g id="a_node1"><a xlink:href="https://github.com/iLya2IK/wchttpserver/wiki/wcWebsocketCon" xlink:title="wcWebsocketCon">
<polygon fill="none" stroke="black" points="658.5,-108 568.5,-108 568.5,-112 556.5,-112 556.5,-72 658.5,-72 658.5,-108"/>
<polyline fill="none" stroke="black" points="556.5,-108 568.5,-108 "/>
<text text-anchor="middle" x="607.5" y="-86.9" font-family="Times,serif" font-size="12.00">wcWebsocketCon</text>
</a>
</g>
</g>
<!-- 7FFFF656B1B0 -->
<g id="node2" class="node">
<title>7FFFF656B1B0</title>
<g id="a_node2"><a xlink:href="https://github.com/iLya2IK/wchttpserver/wiki/commonutils" xlink:title="commonutils">
<polygon fill="none" stroke="black" points="496,-252 431,-252 431,-256 419,-256 419,-216 496,-216 496,-252"/>
<polyline fill="none" stroke="black" points="419,-252 431,-252 "/>
<text text-anchor="middle" x="457.5" y="-230.9" font-family="Times,serif" font-size="12.00">commonutils</text>
</a>
</g>
</g>
<!-- 7FFFF656A570&#45;&gt;7FFFF656B1B0 -->
<g id="edge31" class="edge">
<title>7FFFF656A570&#45;&gt;7FFFF656B1B0</title>
<path fill="none" stroke="black" stroke-dasharray="5,2" d="M606.53,-108.15C604.55,-127.76 598.57,-159.77 580.5,-180 561.15,-201.66 531.39,-214.8 506,-222.58"/>
<polygon fill="black" stroke="black" points="496.15,-225.4 504.52,-218.32 500.96,-224.02 505.76,-222.65 505.76,-222.65 505.76,-222.65 500.96,-224.02 507,-226.97 496.15,-225.4 496.15,-225.4"/>
</g>
<!-- 7FFFF656B7D0 -->
<g id="node3" class="node">
<title>7FFFF656B7D0</title>
<g id="a_node3"><a xlink:href="https://github.com/iLya2IK/wchttpserver/wiki/fpcweb" xlink:title="fpcweb">
<polygon fill="none" stroke="black" points="358.5,-324 316.5,-324 316.5,-328 304.5,-328 304.5,-288 358.5,-288 358.5,-324"/>
<polyline fill="none" stroke="black" points="304.5,-324 316.5,-324 "/>
<text text-anchor="middle" x="331.5" y="-302.9" font-family="Times,serif" font-size="12.00">fpcweb</text>
</a>
</g>
</g>
<!-- 7FFFF656A570&#45;&gt;7FFFF656B7D0 -->
<g id="edge32" class="edge">
<title>7FFFF656A570&#45;&gt;7FFFF656B7D0</title>
<path fill="none" stroke="black" stroke-dasharray="5,2" d="M610.38,-108.27C612.66,-126.87 613.97,-156.89 603.5,-180 584.43,-222.09 568.74,-229.29 528.5,-252 477.43,-280.83 410.01,-294.54 368.75,-300.62"/>
<polygon fill="black" stroke="black" points="358.6,-302.05 367.88,-296.2 363.55,-301.35 368.5,-300.66 368.5,-300.66 368.5,-300.66 363.55,-301.35 369.13,-305.12 358.6,-302.05 358.6,-302.05"/>
</g>
<!-- 7FFFF656C410 -->
<g id="node5" class="node">
<title>7FFFF656C410</title>
<g id="a_node5"><a xlink:href="https://github.com/iLya2IK/wchttpserver/wiki/wcNetworking" xlink:title="wcNetworking">
<polygon fill="none" stroke="black" points="571.5,-180 497.5,-180 497.5,-184 485.5,-184 485.5,-144 571.5,-144 571.5,-180"/>
<polyline fill="none" stroke="black" points="485.5,-180 497.5,-180 "/>
<text text-anchor="middle" x="528.5" y="-158.9" font-family="Times,serif" font-size="12.00">wcNetworking</text>
</a>
</g>
</g>
<!-- 7FFFF656A570&#45;&gt;7FFFF656C410 -->
<g id="edge33" class="edge">
<title>7FFFF656A570&#45;&gt;7FFFF656C410</title>
<path fill="none" stroke="black" stroke-dasharray="5,2" d="M587.97,-108.3C578.12,-117.03 566.01,-127.76 555.3,-137.25"/>
<polygon fill="black" stroke="black" points="547.8,-143.9 552.3,-133.9 551.55,-140.58 555.29,-137.26 555.29,-137.26 555.29,-137.26 551.55,-140.58 558.27,-140.63 547.8,-143.9 547.8,-143.9"/>
</g>
<!-- 7FFFF656BDF0 -->
<g id="node4" class="node">
<title>7FFFF656BDF0</title>
<g id="a_node4"><a xlink:href="https://github.com/iLya2IK/wchttpserver/wiki/wcutils" xlink:title="wcutils">
<polygon fill="none" stroke="black" points="739.5,-180 697.5,-180 697.5,-184 685.5,-184 685.5,-144 739.5,-144 739.5,-180"/>
<polyline fill="none" stroke="black" points="685.5,-180 697.5,-180 "/>
<text text-anchor="middle" x="712.5" y="-158.9" font-family="Times,serif" font-size="12.00">wcutils</text>
</a>
</g>
</g>
<!-- 7FFFF656BDF0&#45;&gt;7FFFF656B1B0 -->
<g id="edge29" class="edge">
<title>7FFFF656BDF0&#45;&gt;7FFFF656B1B0</title>
<path fill="none" stroke="black" stroke-dasharray="5,2" d="M685.21,-170.49C642.48,-182.22 559.19,-205.09 506.06,-219.67"/>
<polygon fill="black" stroke="black" points="496.18,-222.38 504.63,-215.4 501,-221.06 505.82,-219.74 505.82,-219.74 505.82,-219.74 501,-221.06 507.01,-224.07 496.18,-222.38 496.18,-222.38"/>
</g>
<!-- 7FFFF656BDF0&#45;&gt;7FFFF656B7D0 -->
<g id="edge30" class="edge">
<title>7FFFF656BDF0&#45;&gt;7FFFF656B7D0</title>
<path fill="none" stroke="black" stroke-dasharray="5,2" d="M705.73,-180.23C696.66,-200.86 678.52,-234.79 651.5,-252 605.1,-281.55 443.11,-296.87 369.01,-302.46"/>
<polygon fill="black" stroke="black" points="358.74,-303.22 368.39,-298 363.73,-302.85 368.72,-302.49 368.72,-302.49 368.72,-302.49 363.73,-302.85 369.05,-306.97 358.74,-303.22 358.74,-303.22"/>
</g>
<!-- 7FFFF656C410&#45;&gt;7FFFF656B1B0 -->
<g id="edge26" class="edge">
<title>7FFFF656C410&#45;&gt;7FFFF656B1B0</title>
<path fill="none" stroke="black" stroke-dasharray="5,2" d="M510.95,-180.3C502.27,-188.86 491.64,-199.34 482.15,-208.7"/>
<polygon fill="black" stroke="black" points="474.85,-215.9 478.81,-205.67 478.41,-212.39 481.97,-208.87 481.97,-208.87 481.97,-208.87 478.41,-212.39 485.13,-212.08 474.85,-215.9 474.85,-215.9"/>
</g>
<!-- 7FFFF656C410&#45;&gt;7FFFF656B7D0 -->
<g id="edge27" class="edge">
<title>7FFFF656C410&#45;&gt;7FFFF656B7D0</title>
<path fill="none" stroke="black" stroke-dasharray="5,2" d="M528.8,-180.1C528.21,-199.98 524.16,-232.53 505.5,-252 469.6,-289.47 408.1,-300.67 368.65,-303.89"/>
<polygon fill="black" stroke="black" points="358.64,-304.58 368.31,-299.41 363.63,-304.24 368.62,-303.89 368.62,-303.89 368.62,-303.89 363.63,-304.24 368.93,-308.38 358.64,-304.58 358.64,-304.58"/>
</g>
<!-- 7FFFF656FB30 -->
<g id="node13" class="node">
<title>7FFFF656FB30</title>
<g id="a_node13"><a xlink:href="https://github.com/iLya2IK/wchttpserver/wiki/AbstractHTTPServer" xlink:title="AbstractHTTPServer">
<polygon fill="none" stroke="black" points="281,-252 176,-252 176,-256 164,-256 164,-216 281,-216 281,-252"/>
<polyline fill="none" stroke="black" points="164,-252 176,-252 "/>
<text text-anchor="middle" x="222.5" y="-230.9" font-family="Times,serif" font-size="12.00">AbstractHTTPServer</text>
</a>
</g>
</g>
<!-- 7FFFF656C410&#45;&gt;7FFFF656FB30 -->
<g id="edge28" class="edge">
<title>7FFFF656C410&#45;&gt;7FFFF656FB30</title>
<path fill="none" stroke="black" stroke-dasharray="5,2" d="M485.31,-172.88C434.85,-184.42 350.71,-203.67 291.25,-217.27"/>
<polygon fill="black" stroke="black" points="281.19,-219.57 289.93,-212.96 286.06,-218.46 290.94,-217.34 290.94,-217.34 290.94,-217.34 286.06,-218.46 291.94,-221.73 281.19,-219.57 281.19,-219.57"/>
</g>
<!-- 7FFFF656CA30 -->
<g id="node6" class="node">
<title>7FFFF656CA30</title>
<g id="a_node6"><a xlink:href="https://github.com/iLya2IK/wchttpserver/wiki/wchttpserver_rpc" xlink:title="wchttpserver_rpc">
<polygon fill="none" stroke="black" points="754.5,-36 668.5,-36 668.5,-40 656.5,-40 656.5,0 754.5,0 754.5,-36"/>
<polyline fill="none" stroke="black" points="656.5,-36 668.5,-36 "/>
<text text-anchor="middle" x="705.5" y="-14.9" font-family="Times,serif" font-size="12.00">wchttpserver_rpc</text>
</a>
</g>
</g>
<!-- 7FFFF656CA30&#45;&gt;7FFFF656A570 -->
<g id="edge25" class="edge">
<title>7FFFF656CA30&#45;&gt;7FFFF656A570</title>
<path fill="none" stroke="black" stroke-dasharray="5,2" d="M681.53,-36.12C668.95,-45.11 653.37,-56.24 639.75,-65.97"/>
<polygon fill="black" stroke="black" points="631.57,-71.81 637.09,-62.34 635.63,-68.9 639.7,-66 639.7,-66 639.7,-66 635.63,-68.9 642.32,-69.66 631.57,-71.81 631.57,-71.81"/>
</g>
<!-- 7FFFF656CA30&#45;&gt;7FFFF656BDF0 -->
<g id="edge24" class="edge">
<title>7FFFF656CA30&#45;&gt;7FFFF656BDF0</title>
<path fill="none" stroke="black" stroke-dasharray="5,2" d="M719.83,-36.43C726.95,-46.24 734.81,-59.08 738.5,-72 742.9,-87.38 742.12,-92.41 738.5,-108 736.4,-117.04 732.53,-126.32 728.41,-134.53"/>
<polygon fill="black" stroke="black" points="723.55,-143.61 724.3,-132.67 725.91,-139.2 728.27,-134.8 728.27,-134.8 728.27,-134.8 725.91,-139.2 732.24,-136.92 723.55,-143.61 723.55,-143.61"/>
</g>
<!-- 7FFFF656CA30&#45;&gt;7FFFF656C410 -->
<g id="edge23" class="edge">
<title>7FFFF656CA30&#45;&gt;7FFFF656C410</title>
<path fill="none" stroke="black" stroke-dasharray="5,2" d="M702.41,-36.03C697.97,-55.84 687.97,-88.32 667.5,-108 644.02,-130.58 609.93,-143.77 581.39,-151.35"/>
<polygon fill="black" stroke="black" points="571.56,-153.8 580.17,-147.02 576.41,-152.59 581.26,-151.38 581.26,-151.38 581.26,-151.38 576.41,-152.59 582.35,-155.75 571.56,-153.8 571.56,-153.8"/>
</g>
<!-- 7FFFF656D050 -->
<g id="node7" class="node">
<title>7FFFF656D050</title>
<g id="a_node7"><a xlink:href="https://github.com/iLya2IK/wchttpserver/wiki/wchttpserver_rest" xlink:title="wchttpserver_rest">
<polygon fill="none" stroke="black" points="638,-36 551,-36 551,-40 539,-40 539,0 638,0 638,-36"/>
<polyline fill="none" stroke="black" points="539,-36 551,-36 "/>
<text text-anchor="middle" x="588.5" y="-14.9" font-family="Times,serif" font-size="12.00">wchttpserver_rest</text>
</a>
</g>
</g>
<!-- 7FFFF656D050&#45;&gt;7FFFF656A570 -->
<g id="edge22" class="edge">
<title>7FFFF656D050&#45;&gt;7FFFF656A570</title>
<path fill="none" stroke="black" stroke-dasharray="5,2" d="M593.2,-36.3C595.31,-44.1 597.86,-53.49 600.22,-62.17"/>
<polygon fill="black" stroke="black" points="602.86,-71.9 595.89,-63.42 601.55,-67.07 600.24,-62.24 600.24,-62.24 600.24,-62.24 601.55,-67.07 604.58,-61.07 602.86,-71.9 602.86,-71.9"/>
</g>
<!-- 7FFFF656D050&#45;&gt;7FFFF656BDF0 -->
<g id="edge21" class="edge">
<title>7FFFF656D050&#45;&gt;7FFFF656BDF0</title>
<path fill="none" stroke="black" stroke-dasharray="5,2" d="M621.76,-36.1C637.1,-45.21 654.7,-57.52 667.5,-72 683.64,-90.25 695.63,-115.33 703.16,-134.21"/>
<polygon fill="black" stroke="black" points="706.78,-143.72 699.02,-135.98 705,-139.05 703.22,-134.37 703.22,-134.37 703.22,-134.37 705,-139.05 707.43,-132.77 706.78,-143.72 706.78,-143.72"/>
</g>
<!-- 7FFFF656D050&#45;&gt;7FFFF656C410 -->
<g id="edge20" class="edge">
<title>7FFFF656D050&#45;&gt;7FFFF656C410</title>
<path fill="none" stroke="black" stroke-dasharray="5,2" d="M571.88,-36.3C563.38,-46.07 553.57,-58.91 547.5,-72 538.38,-91.65 533.58,-115.78 531.09,-133.95"/>
<polygon fill="black" stroke="black" points="529.87,-143.89 526.62,-133.41 530.48,-138.92 531.09,-133.96 531.09,-133.96 531.09,-133.96 530.48,-138.92 535.56,-134.51 529.87,-143.89 529.87,-143.89"/>
</g>
<!-- 7FFFF656D670 -->
<g id="node8" class="node">
<title>7FFFF656D670</title>
<g id="a_node8"><a xlink:href="https://github.com/iLya2IK/wchttpserver/wiki/wcHTTP2Con" xlink:title="wcHTTP2Con">
<polygon fill="none" stroke="black" points="304,-108 229,-108 229,-112 217,-112 217,-72 304,-72 304,-108"/>
<polyline fill="none" stroke="black" points="217,-108 229,-108 "/>
<text text-anchor="middle" x="260.5" y="-86.9" font-family="Times,serif" font-size="12.00">wcHTTP2Con</text>
</a>
</g>
</g>
<!-- 7FFFF656D670&#45;&gt;7FFFF656B1B0 -->
<g id="edge16" class="edge">
<title>7FFFF656D670&#45;&gt;7FFFF656B1B0</title>
<path fill="none" stroke="black" stroke-dasharray="5,2" d="M265.35,-108.16C271.83,-128.1 285.15,-160.7 307.5,-180 336.08,-204.68 376.91,-218.11 408.76,-225.28"/>
<polygon fill="black" stroke="black" points="418.75,-227.39 408.04,-229.72 413.86,-226.35 408.97,-225.32 408.97,-225.32 408.97,-225.32 413.86,-226.35 409.9,-220.92 418.75,-227.39 418.75,-227.39"/>
</g>
<!-- 7FFFF656D670&#45;&gt;7FFFF656B7D0 -->
<g id="edge17" class="edge">
<title>7FFFF656D670&#45;&gt;7FFFF656B7D0</title>
<path fill="none" stroke="black" stroke-dasharray="5,2" d="M262.34,-108.01C264.59,-126.14 269.03,-155.52 276.5,-180 282.37,-199.23 304.61,-247.87 318.95,-278.49"/>
<polygon fill="black" stroke="black" points="323.3,-287.74 314.97,-280.6 321.17,-283.21 319.04,-278.69 319.04,-278.69 319.04,-278.69 321.17,-283.21 323.12,-276.77 323.3,-287.74 323.3,-287.74"/>
</g>
<!-- 7FFFF656D670&#45;&gt;7FFFF656C410 -->
<g id="edge18" class="edge">
<title>7FFFF656D670&#45;&gt;7FFFF656C410</title>
<path fill="none" stroke="black" stroke-dasharray="5,2" d="M304.16,-102.4C351.02,-114.64 425.47,-134.09 475.62,-147.19"/>
<polygon fill="black" stroke="black" points="485.31,-149.72 474.49,-151.55 480.47,-148.45 475.63,-147.19 475.63,-147.19 475.63,-147.19 480.47,-148.45 476.77,-142.84 485.31,-149.72 485.31,-149.72"/>
</g>
<!-- 7FFFF656D670&#45;&gt;7FFFF656FB30 -->
<g id="edge19" class="edge">
<title>7FFFF656D670&#45;&gt;7FFFF656FB30</title>
<path fill="none" stroke="black" stroke-dasharray="5,2" d="M250.82,-108.15C245.51,-118.28 239.26,-131.53 235.5,-144 229.39,-164.28 226.1,-188.05 224.36,-205.92"/>
<polygon fill="black" stroke="black" points="223.49,-215.95 219.88,-205.59 223.92,-210.96 224.36,-205.98 224.36,-205.98 224.36,-205.98 223.92,-210.96 228.84,-206.37 223.49,-215.95 223.49,-215.95"/>
</g>
<!-- 7FFFF656E2B0 -->
<g id="node9" class="node">
<title>7FFFF656E2B0</title>
<g id="a_node9"><a xlink:href="https://github.com/iLya2IK/wchttpserver/wiki/wcDecoders" xlink:title="wcDecoders">
<polygon fill="none" stroke="black" points="391,-180 328,-180 328,-184 316,-184 316,-144 391,-144 391,-180"/>
<polyline fill="none" stroke="black" points="316,-180 328,-180 "/>
<text text-anchor="middle" x="353.5" y="-158.9" font-family="Times,serif" font-size="12.00">wcDecoders</text>
</a>
</g>
</g>
<!-- 7FFFF656E2B0&#45;&gt;7FFFF656B1B0 -->
<g id="edge14" class="edge">
<title>7FFFF656E2B0&#45;&gt;7FFFF656B1B0</title>
<path fill="none" stroke="black" stroke-dasharray="5,2" d="M378.94,-180.12C392.29,-189.11 408.82,-200.24 423.28,-209.97"/>
<polygon fill="black" stroke="black" points="431.96,-215.81 421.15,-213.96 427.81,-213.02 423.67,-210.23 423.67,-210.23 423.67,-210.23 427.81,-213.02 426.18,-206.49 431.96,-215.81 431.96,-215.81"/>
</g>
<!-- 7FFFF656E2B0&#45;&gt;7FFFF656B7D0 -->
<g id="edge15" class="edge">
<title>7FFFF656E2B0&#45;&gt;7FFFF656B7D0</title>
<path fill="none" stroke="black" stroke-dasharray="5,2" d="M350.85,-180.13C347.1,-204.33 340.21,-248.79 335.74,-277.61"/>
<polygon fill="black" stroke="black" points="334.16,-287.81 331.25,-277.24 334.93,-282.87 335.69,-277.93 335.69,-277.93 335.69,-277.93 334.93,-282.87 340.14,-278.62 334.16,-287.81 334.16,-287.81"/>
</g>
<!-- 7FFFF656E8D0 -->
<g id="node10" class="node">
<title>7FFFF656E8D0</title>
<g id="a_node10"><a xlink:href="https://github.com/iLya2IK/wchttpserver/wiki/wcConfig" xlink:title="wcConfig">
<polygon fill="none" stroke="black" points="424,-108 373,-108 373,-112 361,-112 361,-72 424,-72 424,-108"/>
<polyline fill="none" stroke="black" points="361,-108 373,-108 "/>
<text text-anchor="middle" x="392.5" y="-86.9" font-family="Times,serif" font-size="12.00">wcConfig</text>
</a>
</g>
</g>
<!-- 7FFFF656E8D0&#45;&gt;7FFFF656B1B0 -->
<g id="edge13" class="edge">
<title>7FFFF656E8D0&#45;&gt;7FFFF656B1B0</title>
<path fill="none" stroke="black" stroke-dasharray="5,2" d="M400.34,-108.13C411.52,-132.54 432.13,-177.57 445.31,-206.36"/>
<polygon fill="black" stroke="black" points="449.63,-215.81 441.38,-208.59 447.55,-211.26 445.47,-206.72 445.47,-206.72 445.47,-206.72 447.55,-211.26 449.56,-204.85 449.63,-215.81 449.63,-215.81"/>
</g>
<!-- 7FFFF656EEF0 -->
<g id="node11" class="node">
<title>7FFFF656EEF0</title>
<g id="a_node11"><a xlink:href="https://github.com/iLya2IK/wchttpserver/wiki/wcApplication" xlink:title="wcApplication">
<polygon fill="none" stroke="black" points="375.5,-36 301.5,-36 301.5,-40 289.5,-40 289.5,0 375.5,0 375.5,-36"/>
<polyline fill="none" stroke="black" points="289.5,-36 301.5,-36 "/>
<text text-anchor="middle" x="332.5" y="-14.9" font-family="Times,serif" font-size="12.00">wcApplication</text>
</a>
</g>
</g>
<!-- 7FFFF656EEF0&#45;&gt;7FFFF656A570 -->
<g id="edge10" class="edge">
<title>7FFFF656EEF0&#45;&gt;7FFFF656A570</title>
<path fill="none" stroke="black" stroke-dasharray="5,2" d="M375.77,-30.01C421.67,-41.7 494.56,-60.25 546.32,-73.43"/>
<polygon fill="black" stroke="black" points="556.06,-75.9 545.25,-77.8 551.21,-74.67 546.36,-73.44 546.36,-73.44 546.36,-73.44 551.21,-74.67 547.47,-69.08 556.06,-75.9 556.06,-75.9"/>
</g>
<!-- 7FFFF656EEF0&#45;&gt;7FFFF656B1B0 -->
<g id="edge4" class="edge">
<title>7FFFF656EEF0&#45;&gt;7FFFF656B1B0</title>
<path fill="none" stroke="black" stroke-dasharray="5,2" d="M375.56,-31.38C396.3,-39.56 419.62,-52.47 433.5,-72 461.78,-111.81 462.82,-171.23 460.51,-205.65"/>
<polygon fill="black" stroke="black" points="459.67,-215.89 456,-205.56 460.07,-210.91 460.48,-205.92 460.48,-205.92 460.48,-205.92 460.07,-210.91 464.97,-206.29 459.67,-215.89 459.67,-215.89"/>
</g>
<!-- 7FFFF656EEF0&#45;&gt;7FFFF656B7D0 -->
<g id="edge5" class="edge">
<title>7FFFF656EEF0&#45;&gt;7FFFF656B7D0</title>
<path fill="none" stroke="black" stroke-dasharray="5,2" d="M289.26,-24.53C257.83,-30.8 216.56,-44.07 191.5,-72 136.95,-132.79 105.73,-186.49 154.5,-252 171.24,-274.49 247.63,-290.97 294.41,-299.17"/>
<polygon fill="black" stroke="black" points="304.48,-300.89 293.87,-303.64 299.55,-300.05 294.62,-299.21 294.62,-299.21 294.62,-299.21 299.55,-300.05 295.38,-294.77 304.48,-300.89 304.48,-300.89"/>
</g>
<!-- 7FFFF656EEF0&#45;&gt;7FFFF656C410 -->
<g id="edge6" class="edge">
<title>7FFFF656EEF0&#45;&gt;7FFFF656C410</title>
<path fill="none" stroke="black" stroke-dasharray="5,2" d="M375.64,-29.1C403.67,-37.25 439.82,-50.89 466.5,-72 487.95,-88.97 505.01,-115.33 515.77,-134.97"/>
<polygon fill="black" stroke="black" points="520.53,-143.99 511.88,-137.25 518.2,-139.57 515.86,-135.15 515.86,-135.15 515.86,-135.15 518.2,-139.57 519.84,-133.05 520.53,-143.99 520.53,-143.99"/>
</g>
<!-- 7FFFF656EEF0&#45;&gt;7FFFF656D670 -->
<g id="edge7" class="edge">
<title>7FFFF656EEF0&#45;&gt;7FFFF656D670</title>
<path fill="none" stroke="black" stroke-dasharray="5,2" d="M314.7,-36.3C305.9,-44.86 295.12,-55.34 285.5,-64.7"/>
<polygon fill="black" stroke="black" points="278.09,-71.9 282.13,-61.7 281.68,-68.41 285.26,-64.92 285.26,-64.92 285.26,-64.92 281.68,-68.41 288.4,-68.15 278.09,-71.9 278.09,-71.9"/>
</g>
<!-- 7FFFF656EEF0&#45;&gt;7FFFF656E2B0 -->
<g id="edge9" class="edge">
<title>7FFFF656EEF0&#45;&gt;7FFFF656E2B0</title>
<path fill="none" stroke="black" stroke-dasharray="5,2" d="M335.03,-36.13C338.61,-60.33 345.19,-104.79 349.45,-133.61"/>
<polygon fill="black" stroke="black" points="350.96,-143.81 345.04,-134.58 350.23,-138.86 349.49,-133.92 349.49,-133.92 349.49,-133.92 350.23,-138.86 353.95,-133.26 350.96,-143.81 350.96,-143.81"/>
</g>
<!-- 7FFFF656EEF0&#45;&gt;7FFFF656E8D0 -->
<g id="edge8" class="edge">
<title>7FFFF656EEF0&#45;&gt;7FFFF656E8D0</title>
<path fill="none" stroke="black" stroke-dasharray="5,2" d="M347.33,-36.3C354.52,-44.7 363.3,-54.93 371.19,-64.14"/>
<polygon fill="black" stroke="black" points="377.84,-71.9 367.91,-67.23 374.59,-68.1 371.33,-64.3 371.33,-64.3 371.33,-64.3 374.59,-68.1 374.75,-61.37 377.84,-71.9 377.84,-71.9"/>
</g>
<!-- 7FFFF656F510 -->
<g id="node12" class="node">
<title>7FFFF656F510</title>
<g id="a_node12"><a xlink:href="https://github.com/iLya2IK/wchttpserver/wiki/CustAbsHTTPApp" xlink:title="CustAbsHTTPApp">
<polygon fill="none" stroke="black" points="107,-180 12,-180 12,-184 0,-184 0,-144 107,-144 107,-180"/>
<polyline fill="none" stroke="black" points="0,-180 12,-180 "/>
<text text-anchor="middle" x="53.5" y="-158.9" font-family="Times,serif" font-size="12.00">CustAbsHTTPApp</text>
</a>
</g>
</g>
<!-- 7FFFF656EEF0&#45;&gt;7FFFF656F510 -->
<g id="edge12" class="edge">
<title>7FFFF656EEF0&#45;&gt;7FFFF656F510</title>
<path fill="none" stroke="black" stroke-dasharray="5,2" d="M289.14,-21.54C243.96,-25.99 172.76,-38.25 121.5,-72 97.66,-87.69 78.81,-114.64 67.06,-134.78"/>
<polygon fill="black" stroke="black" points="62.02,-143.77 62.99,-132.85 64.46,-139.41 66.91,-135.05 66.91,-135.05 66.91,-135.05 64.46,-139.41 70.84,-137.25 62.02,-143.77 62.02,-143.77"/>
</g>
<!-- 7FFFF656EEF0&#45;&gt;7FFFF656FB30 -->
<g id="edge11" class="edge">
<title>7FFFF656EEF0&#45;&gt;7FFFF656FB30</title>
<path fill="none" stroke="black" stroke-dasharray="5,2" d="M289.37,-24.97C260.89,-31.4 225.59,-44.68 207.5,-72 180.56,-112.69 197.12,-172.36 210.53,-206.47"/>
<polygon fill="black" stroke="black" points="214.36,-215.78 206.4,-208.25 212.46,-211.16 210.56,-206.53 210.56,-206.53 210.56,-206.53 212.46,-211.16 214.72,-204.82 214.36,-215.78 214.36,-215.78"/>
</g>
<!-- 7FFFF656F510&#45;&gt;7FFFF656B7D0 -->
<g id="edge2" class="edge">
<title>7FFFF656F510&#45;&gt;7FFFF656B7D0</title>
<path fill="none" stroke="black" stroke-dasharray="5,2" d="M62.02,-180.22C72.97,-200.53 93.9,-233.81 121.5,-252 174.83,-287.16 249.86,-298.99 294.3,-302.98"/>
<polygon fill="black" stroke="black" points="304.37,-303.79 294.04,-307.47 299.39,-303.39 294.41,-302.99 294.41,-302.99 294.41,-302.99 299.39,-303.39 294.77,-298.5 304.37,-303.79 304.37,-303.79"/>
</g>
<!-- 7FFFF656F510&#45;&gt;7FFFF656FB30 -->
<g id="edge3" class="edge">
<title>7FFFF656F510&#45;&gt;7FFFF656FB30</title>
<path fill="none" stroke="black" stroke-dasharray="5,2" d="M94.84,-180.12C118.05,-189.74 147.19,-201.81 171.77,-211.99"/>
<polygon fill="black" stroke="black" points="181.29,-215.93 170.33,-216.26 176.67,-214.02 172.05,-212.1 172.05,-212.1 172.05,-212.1 176.67,-214.02 173.78,-207.95 181.29,-215.93 181.29,-215.93"/>
</g>
<!-- 7FFFF656FB30&#45;&gt;7FFFF656B7D0 -->
<g id="edge1" class="edge">
<title>7FFFF656FB30&#45;&gt;7FFFF656B7D0</title>
<path fill="none" stroke="black" stroke-dasharray="5,2" d="M249.16,-252.12C263.28,-261.19 280.81,-272.45 296.06,-282.24"/>
<polygon fill="black" stroke="black" points="304.73,-287.81 293.89,-286.19 300.53,-285.11 296.32,-282.41 296.32,-282.41 296.32,-282.41 300.53,-285.11 298.75,-278.62 304.73,-287.81 304.73,-287.81"/>
</g>
</g>
</svg>
