<?xml version="1.0" encoding="UTF-8" standalone="no"?>
<!DOCTYPE svg PUBLIC "-//W3C//DTD SVG 1.1//EN"
 "http://www.w3.org/Graphics/SVG/1.1/DTD/svg11.dtd">
<!-- Generated by graphviz version 2.49.3 (0)
 -->
<!-- Title: g Pages: 1 -->
<svg width="875pt" height="260pt"
 viewBox="0.00 0.00 875.00 260.00" xmlns="http://www.w3.org/2000/svg" xmlns:xlink="http://www.w3.org/1999/xlink">
<g id="graph0" class="graph" transform="scale(1 1) rotate(0) translate(4 256)">
<title>g</title>
<polygon fill="white" stroke="transparent" points="-4,4 -4,-256 871,-256 871,4 -4,4"/>
<!-- 7FFFF656A570 -->
<g id="node1" class="node">
<title>7FFFF656A570</title>
<g id="a_node1"><a xlink:href="https://github.com/iLya2IK/wchttpserver/wiki/wcWebsocketCon" xlink:title="wcWebsocketCon">
<polygon fill="none" stroke="black" points="567.5,-180 477.5,-180 477.5,-184 465.5,-184 465.5,-144 567.5,-144 567.5,-180"/>
<polyline fill="none" stroke="black" points="465.5,-180 477.5,-180 "/>
<text text-anchor="middle" x="516.5" y="-158.9" font-family="Times,serif" font-size="12.00">wcWebsocketCon</text>
</a>
</g>
</g>
<!-- 7FFFF656B1B0 -->
<g id="node2" class="node">
<title>7FFFF656B1B0</title>
<g id="a_node2"><a xlink:href="https://github.com/iLya2IK/wchttpserver/wiki/commonutils" xlink:title="commonutils">
<polygon fill="none" stroke="black" points="262,-252 197,-252 197,-256 185,-256 185,-216 262,-216 262,-252"/>
<polyline fill="none" stroke="black" points="185,-252 197,-252 "/>
<text text-anchor="middle" x="223.5" y="-230.9" font-family="Times,serif" font-size="12.00">commonutils</text>
</a>
</g>
</g>
<!-- 7FFFF656A570&#45;&gt;7FFFF656B1B0 -->
<g id="edge26" class="edge">
<title>7FFFF656A570&#45;&gt;7FFFF656B1B0</title>
<path fill="none" stroke="black" stroke-dasharray="5,2" d="M465.49,-177.65C462.45,-178.46 459.44,-179.25 456.5,-180 393.21,-196.15 319.64,-212.48 272.37,-222.66"/>
<polygon fill="black" stroke="black" points="262.4,-224.8 271.24,-218.31 267.29,-223.75 272.18,-222.71 272.18,-222.71 272.18,-222.71 267.29,-223.75 273.12,-227.1 262.4,-224.8 262.4,-224.8"/>
</g>
<!-- 7FFFF656B7D0 -->
<g id="node3" class="node">
<title>7FFFF656B7D0</title>
<g id="a_node3"><a xlink:href="https://github.com/iLya2IK/wchttpserver/wiki/fpcweb" xlink:title="fpcweb">
<polygon fill="none" stroke="black" points="495.5,-252 453.5,-252 453.5,-256 441.5,-256 441.5,-216 495.5,-216 495.5,-252"/>
<polyline fill="none" stroke="black" points="441.5,-252 453.5,-252 "/>
<text text-anchor="middle" x="468.5" y="-230.9" font-family="Times,serif" font-size="12.00">fpcweb</text>
</a>
</g>
</g>
<!-- 7FFFF656A570&#45;&gt;7FFFF656B7D0 -->
<g id="edge27" class="edge">
<title>7FFFF656A570&#45;&gt;7FFFF656B7D0</title>
<path fill="none" stroke="black" stroke-dasharray="5,2" d="M504.63,-180.3C499,-188.53 492.15,-198.52 485.93,-207.58"/>
<polygon fill="black" stroke="black" points="480.23,-215.9 482.17,-205.1 483.06,-211.77 485.88,-207.65 485.88,-207.65 485.88,-207.65 483.06,-211.77 489.6,-210.19 480.23,-215.9 480.23,-215.9"/>
</g>
<!-- 7FFFF656BDF0 -->
<g id="node4" class="node">
<title>7FFFF656BDF0</title>
<g id="a_node4"><a xlink:href="https://github.com/iLya2IK/wchttpserver/wiki/wcutils" xlink:title="wcutils">
<polygon fill="none" stroke="black" points="447.5,-180 405.5,-180 405.5,-184 393.5,-184 393.5,-144 447.5,-144 447.5,-180"/>
<polyline fill="none" stroke="black" points="393.5,-180 405.5,-180 "/>
<text text-anchor="middle" x="420.5" y="-158.9" font-family="Times,serif" font-size="12.00">wcutils</text>
</a>
</g>
</g>
<!-- 7FFFF656BDF0&#45;&gt;7FFFF656B1B0 -->
<g id="edge24" class="edge">
<title>7FFFF656BDF0&#45;&gt;7FFFF656B1B0</title>
<path fill="none" stroke="black" stroke-dasharray="5,2" d="M393.14,-176.35C390.24,-177.63 387.32,-178.87 384.5,-180 347.22,-194.87 303.97,-208.94 271.68,-218.84"/>
<polygon fill="black" stroke="black" points="262.03,-221.78 270.29,-214.56 266.82,-220.32 271.6,-218.87 271.6,-218.87 271.6,-218.87 266.82,-220.32 272.91,-223.17 262.03,-221.78 262.03,-221.78"/>
</g>
<!-- 7FFFF656BDF0&#45;&gt;7FFFF656B7D0 -->
<g id="edge25" class="edge">
<title>7FFFF656BDF0&#45;&gt;7FFFF656B7D0</title>
<path fill="none" stroke="black" stroke-dasharray="5,2" d="M432.37,-180.3C438,-188.53 444.85,-198.52 451.07,-207.58"/>
<polygon fill="black" stroke="black" points="456.77,-215.9 447.4,-210.19 453.94,-211.77 451.12,-207.65 451.12,-207.65 451.12,-207.65 453.94,-211.77 454.83,-205.1 456.77,-215.9 456.77,-215.9"/>
</g>
<!-- 7FFFF656C410 -->
<g id="node5" class="node">
<title>7FFFF656C410</title>
<g id="a_node5"><a xlink:href="https://github.com/iLya2IK/wchttpserver/wiki/wcNetworking" xlink:title="wcNetworking">
<polygon fill="none" stroke="black" points="375.5,-180 301.5,-180 301.5,-184 289.5,-184 289.5,-144 375.5,-144 375.5,-180"/>
<polyline fill="none" stroke="black" points="289.5,-180 301.5,-180 "/>
<text text-anchor="middle" x="332.5" y="-158.9" font-family="Times,serif" font-size="12.00">wcNetworking</text>
</a>
</g>
</g>
<!-- 7FFFF656C410&#45;&gt;7FFFF656B1B0 -->
<g id="edge22" class="edge">
<title>7FFFF656C410&#45;&gt;7FFFF656B1B0</title>
<path fill="none" stroke="black" stroke-dasharray="5,2" d="M305.84,-180.12C291.72,-189.19 274.19,-200.45 258.94,-210.24"/>
<polygon fill="black" stroke="black" points="250.27,-215.81 256.25,-206.62 254.47,-213.11 258.68,-210.41 258.68,-210.41 258.68,-210.41 254.47,-213.11 261.11,-214.19 250.27,-215.81 250.27,-215.81"/>
</g>
<!-- 7FFFF656C410&#45;&gt;7FFFF656B7D0 -->
<g id="edge23" class="edge">
<title>7FFFF656C410&#45;&gt;7FFFF656B7D0</title>
<path fill="none" stroke="black" stroke-dasharray="5,2" d="M365.77,-180.12C385.82,-190.44 411.37,-203.6 431.98,-214.2"/>
<polygon fill="black" stroke="black" points="441.06,-218.88 430.11,-218.3 436.62,-216.59 432.17,-214.3 432.17,-214.3 432.17,-214.3 436.62,-216.59 434.23,-210.3 441.06,-218.88 441.06,-218.88"/>
</g>
<!-- 7FFFF656CA30 -->
<g id="node6" class="node">
<title>7FFFF656CA30</title>
<g id="a_node6"><a xlink:href="https://github.com/iLya2IK/wchttpserver/wiki/wchttpserver_rpc" xlink:title="wchttpserver_rpc">
<polygon fill="none" stroke="black" points="427.5,-108 341.5,-108 341.5,-112 329.5,-112 329.5,-72 427.5,-72 427.5,-108"/>
<polyline fill="none" stroke="black" points="329.5,-108 341.5,-108 "/>
<text text-anchor="middle" x="378.5" y="-86.9" font-family="Times,serif" font-size="12.00">wchttpserver_rpc</text>
</a>
</g>
</g>
<!-- 7FFFF656CA30&#45;&gt;7FFFF656A570 -->
<g id="edge21" class="edge">
<title>7FFFF656CA30&#45;&gt;7FFFF656A570</title>
<path fill="none" stroke="black" stroke-dasharray="5,2" d="M412.26,-108.12C430.72,-117.49 453.78,-129.19 473.52,-139.2"/>
<polygon fill="black" stroke="black" points="482.61,-143.81 471.66,-143.3 478.15,-141.55 473.69,-139.29 473.69,-139.29 473.69,-139.29 478.15,-141.55 475.73,-135.27 482.61,-143.81 482.61,-143.81"/>
</g>
<!-- 7FFFF656CA30&#45;&gt;7FFFF656BDF0 -->
<g id="edge20" class="edge">
<title>7FFFF656CA30&#45;&gt;7FFFF656BDF0</title>
<path fill="none" stroke="black" stroke-dasharray="5,2" d="M388.88,-108.3C393.76,-116.44 399.69,-126.31 405.08,-135.3"/>
<polygon fill="black" stroke="black" points="410.24,-143.9 401.23,-137.64 407.66,-139.61 405.09,-135.32 405.09,-135.32 405.09,-135.32 407.66,-139.61 408.95,-133.01 410.24,-143.9 410.24,-143.9"/>
</g>
<!-- 7FFFF656CA30&#45;&gt;7FFFF656C410 -->
<g id="edge19" class="edge">
<title>7FFFF656CA30&#45;&gt;7FFFF656C410</title>
<path fill="none" stroke="black" stroke-dasharray="5,2" d="M367.13,-108.3C361.78,-116.44 355.3,-126.31 349.39,-135.3"/>
<polygon fill="black" stroke="black" points="343.74,-143.9 345.47,-133.07 346.49,-139.72 349.23,-135.54 349.23,-135.54 349.23,-135.54 346.49,-139.72 352.99,-138.01 343.74,-143.9 343.74,-143.9"/>
</g>
<!-- 7FFFF656D050 -->
<g id="node7" class="node">
<title>7FFFF656D050</title>
<g id="a_node7"><a xlink:href="https://github.com/iLya2IK/wchttpserver/wiki/wchttpserver_rest" xlink:title="wchttpserver_rest">
<polygon fill="none" stroke="black" points="545,-108 458,-108 458,-112 446,-112 446,-72 545,-72 545,-108"/>
<polyline fill="none" stroke="black" points="446,-108 458,-108 "/>
<text text-anchor="middle" x="495.5" y="-86.9" font-family="Times,serif" font-size="12.00">wchttpserver_rest</text>
</a>
</g>
</g>
<!-- 7FFFF656D050&#45;&gt;7FFFF656A570 -->
<g id="edge18" class="edge">
<title>7FFFF656D050&#45;&gt;7FFFF656A570</title>
<path fill="none" stroke="black" stroke-dasharray="5,2" d="M500.69,-108.3C503.03,-116.1 505.85,-125.49 508.45,-134.17"/>
<polygon fill="black" stroke="black" points="511.37,-143.9 504.18,-135.61 509.93,-139.11 508.5,-134.32 508.5,-134.32 508.5,-134.32 509.93,-139.11 512.81,-133.02 511.37,-143.9 511.37,-143.9"/>
</g>
<!-- 7FFFF656D050&#45;&gt;7FFFF656BDF0 -->
<g id="edge17" class="edge">
<title>7FFFF656D050&#45;&gt;7FFFF656BDF0</title>
<path fill="none" stroke="black" stroke-dasharray="5,2" d="M476.96,-108.3C467.7,-116.95 456.34,-127.55 446.24,-136.97"/>
<polygon fill="black" stroke="black" points="438.83,-143.9 443.07,-133.78 442.48,-140.48 446.14,-137.07 446.14,-137.07 446.14,-137.07 442.48,-140.48 449.21,-140.36 438.83,-143.9 438.83,-143.9"/>
</g>
<!-- 7FFFF656D050&#45;&gt;7FFFF656C410 -->
<g id="edge16" class="edge">
<title>7FFFF656D050&#45;&gt;7FFFF656C410</title>
<path fill="none" stroke="black" stroke-dasharray="5,2" d="M455.63,-108.12C433.34,-117.69 405.38,-129.7 381.74,-139.85"/>
<polygon fill="black" stroke="black" points="372.24,-143.93 379.66,-135.85 376.84,-141.96 381.43,-139.99 381.43,-139.99 381.43,-139.99 376.84,-141.96 383.21,-144.12 372.24,-143.93 372.24,-143.93"/>
</g>
<!-- 7FFFF656D670 -->
<g id="node8" class="node">
<title>7FFFF656D670</title>
<g id="a_node8"><a xlink:href="https://github.com/iLya2IK/wchttpserver/wiki/wcHTTP2Con" xlink:title="wcHTTP2Con">
<polygon fill="none" stroke="black" points="273,-108 198,-108 198,-112 186,-112 186,-72 273,-72 273,-108"/>
<polyline fill="none" stroke="black" points="186,-108 198,-108 "/>
<text text-anchor="middle" x="229.5" y="-86.9" font-family="Times,serif" font-size="12.00">wcHTTP2Con</text>
</a>
</g>
</g>
<!-- 7FFFF656D670&#45;&gt;7FFFF656B1B0 -->
<g id="edge13" class="edge">
<title>7FFFF656D670&#45;&gt;7FFFF656B1B0</title>
<path fill="none" stroke="black" stroke-dasharray="5,2" d="M228.78,-108.13C227.75,-132.33 225.88,-176.79 224.66,-205.61"/>
<polygon fill="black" stroke="black" points="224.23,-215.81 220.15,-205.63 224.44,-210.82 224.65,-205.82 224.65,-205.82 224.65,-205.82 224.44,-210.82 229.14,-206.01 224.23,-215.81 224.23,-215.81"/>
</g>
<!-- 7FFFF656D670&#45;&gt;7FFFF656B7D0 -->
<g id="edge14" class="edge">
<title>7FFFF656D670&#45;&gt;7FFFF656B7D0</title>
<path fill="none" stroke="black" stroke-dasharray="5,2" d="M234.82,-108.08C241.97,-128.24 256.63,-161.38 280.5,-180 324.77,-214.54 390.42,-226.57 431.28,-230.76"/>
<polygon fill="black" stroke="black" points="441.35,-231.69 430.98,-235.25 436.37,-231.23 431.4,-230.77 431.4,-230.77 431.4,-230.77 436.37,-231.23 431.81,-226.29 441.35,-231.69 441.35,-231.69"/>
</g>
<!-- 7FFFF656D670&#45;&gt;7FFFF656C410 -->
<g id="edge15" class="edge">
<title>7FFFF656D670&#45;&gt;7FFFF656C410</title>
<path fill="none" stroke="black" stroke-dasharray="5,2" d="M254.7,-108.12C267.91,-117.11 284.29,-128.24 298.61,-137.97"/>
<polygon fill="black" stroke="black" points="307.21,-143.81 296.41,-141.91 303.07,-141 298.94,-138.19 298.94,-138.19 298.94,-138.19 303.07,-141 301.47,-134.47 307.21,-143.81 307.21,-143.81"/>
</g>
<!-- 7FFFF656E2B0 -->
<g id="node9" class="node">
<title>7FFFF656E2B0</title>
<g id="a_node9"><a xlink:href="https://github.com/iLya2IK/wchttpserver/wiki/wcDecoders" xlink:title="wcDecoders">
<polygon fill="none" stroke="black" points="195,-180 132,-180 132,-184 120,-184 120,-144 195,-144 195,-180"/>
<polyline fill="none" stroke="black" points="120,-180 132,-180 "/>
<text text-anchor="middle" x="157.5" y="-158.9" font-family="Times,serif" font-size="12.00">wcDecoders</text>
</a>
</g>
</g>
<!-- 7FFFF656E2B0&#45;&gt;7FFFF656B1B0 -->
<g id="edge11" class="edge">
<title>7FFFF656E2B0&#45;&gt;7FFFF656B1B0</title>
<path fill="none" stroke="black" stroke-dasharray="5,2" d="M173.81,-180.3C181.81,-188.78 191.57,-199.14 200.32,-208.42"/>
<polygon fill="black" stroke="black" points="207.37,-215.9 197.24,-211.71 203.94,-212.26 200.51,-208.62 200.51,-208.62 200.51,-208.62 203.94,-212.26 203.79,-205.53 207.37,-215.9 207.37,-215.9"/>
</g>
<!-- 7FFFF656E2B0&#45;&gt;7FFFF656B7D0 -->
<g id="edge12" class="edge">
<title>7FFFF656E2B0&#45;&gt;7FFFF656B7D0</title>
<path fill="none" stroke="black" stroke-dasharray="5,2" d="M195.01,-171.44C254.91,-184.92 371.46,-211.16 431.21,-224.61"/>
<polygon fill="black" stroke="black" points="441.34,-226.89 430.59,-229.08 436.46,-225.79 431.58,-224.69 431.58,-224.69 431.58,-224.69 436.46,-225.79 432.57,-220.3 441.34,-226.89 441.34,-226.89"/>
</g>
<!-- 7FFFF656E8D0 -->
<g id="node10" class="node">
<title>7FFFF656E8D0</title>
<g id="a_node10"><a xlink:href="https://github.com/iLya2IK/wchttpserver/wiki/wcConfig" xlink:title="wcConfig">
<polygon fill="none" stroke="black" points="63,-108 12,-108 12,-112 0,-112 0,-72 63,-72 63,-108"/>
<polyline fill="none" stroke="black" points="0,-108 12,-108 "/>
<text text-anchor="middle" x="31.5" y="-86.9" font-family="Times,serif" font-size="12.00">wcConfig</text>
</a>
</g>
</g>
<!-- 7FFFF656E8D0&#45;&gt;7FFFF656B1B0 -->
<g id="edge10" class="edge">
<title>7FFFF656E8D0&#45;&gt;7FFFF656B1B0</title>
<path fill="none" stroke="black" stroke-dasharray="5,2" d="M36.18,-108.13C42.45,-128.02 55.42,-160.6 77.5,-180 104.8,-203.99 143.81,-217.41 174.65,-224.74"/>
<polygon fill="black" stroke="black" points="184.76,-227 174.02,-229.21 179.88,-225.91 175,-224.82 175,-224.82 175,-224.82 179.88,-225.91 175.98,-220.43 184.76,-227 184.76,-227"/>
</g>
<!-- 7FFFF656EEF0 -->
<g id="node11" class="node">
<title>7FFFF656EEF0</title>
<g id="a_node11"><a xlink:href="https://github.com/iLya2IK/wchttpserver/wiki/wcApplication" xlink:title="wcApplication">
<polygon fill="none" stroke="black" points="272.5,-36 198.5,-36 198.5,-40 186.5,-40 186.5,0 272.5,0 272.5,-36"/>
<polyline fill="none" stroke="black" points="186.5,-36 198.5,-36 "/>
<text text-anchor="middle" x="229.5" y="-14.9" font-family="Times,serif" font-size="12.00">wcApplication</text>
</a>
</g>
</g>
<!-- 7FFFF656EEF0&#45;&gt;7FFFF656A570 -->
<g id="edge9" class="edge">
<title>7FFFF656EEF0&#45;&gt;7FFFF656A570</title>
<path fill="none" stroke="black" stroke-dasharray="5,2" d="M272.68,-19.42C352.62,-21.21 518.81,-30.02 554.5,-72 570.4,-90.7 555.77,-117.05 540.28,-136.23"/>
<polygon fill="black" stroke="black" points="533.67,-143.96 536.75,-133.43 536.92,-140.16 540.17,-136.36 540.17,-136.36 540.17,-136.36 536.92,-140.16 543.59,-139.28 533.67,-143.96 533.67,-143.96"/>
</g>
<!-- 7FFFF656EEF0&#45;&gt;7FFFF656B1B0 -->
<g id="edge3" class="edge">
<title>7FFFF656EEF0&#45;&gt;7FFFF656B1B0</title>
<path fill="none" stroke="black" stroke-dasharray="5,2" d="M202.32,-36.13C172.09,-57.14 125.54,-95.96 110.5,-144 105.72,-159.27 101.92,-166.5 110.5,-180 124.8,-202.5 151.46,-215.62 175.29,-223.17"/>
<polygon fill="black" stroke="black" points="184.94,-225.99 174.08,-227.51 180.14,-224.59 175.34,-223.19 175.34,-223.19 175.34,-223.19 180.14,-224.59 176.6,-218.87 184.94,-225.99 184.94,-225.99"/>
</g>
<!-- 7FFFF656EEF0&#45;&gt;7FFFF656B7D0 -->
<g id="edge4" class="edge">
<title>7FFFF656EEF0&#45;&gt;7FFFF656B7D0</title>
<path fill="none" stroke="black" stroke-dasharray="5,2" d="M272.63,-21.29C338.49,-25.75 467.46,-38.34 571.5,-72 638.45,-93.66 675.76,-83.99 712.5,-144 759.48,-220.74 584.98,-231.92 505.72,-233.12"/>
<polygon fill="black" stroke="black" points="495.65,-233.23 505.61,-228.62 500.65,-233.17 505.65,-233.12 505.65,-233.12 505.65,-233.12 500.65,-233.17 505.7,-237.62 495.65,-233.23 495.65,-233.23"/>
</g>
<!-- 7FFFF656EEF0&#45;&gt;7FFFF656C410 -->
<g id="edge5" class="edge">
<title>7FFFF656EEF0&#45;&gt;7FFFF656C410</title>
<path fill="none" stroke="black" stroke-dasharray="5,2" d="M248.52,-36.1C258.94,-46.01 271.69,-59.05 281.5,-72 296.51,-91.83 310.32,-116.51 319.78,-134.85"/>
<polygon fill="black" stroke="black" points="324.31,-143.8 315.78,-136.91 322.05,-139.34 319.79,-134.88 319.79,-134.88 319.79,-134.88 322.05,-139.34 323.81,-132.85 324.31,-143.8 324.31,-143.8"/>
</g>
<!-- 7FFFF656EEF0&#45;&gt;7FFFF656D670 -->
<g id="edge6" class="edge">
<title>7FFFF656EEF0&#45;&gt;7FFFF656D670</title>
<path fill="none" stroke="black" stroke-dasharray="5,2" d="M229.5,-36.3C229.5,-44.02 229.5,-53.29 229.5,-61.89"/>
<polygon fill="black" stroke="black" points="229.5,-71.9 225,-61.9 229.5,-66.9 229.5,-61.9 229.5,-61.9 229.5,-61.9 229.5,-66.9 234,-61.9 229.5,-71.9 229.5,-71.9"/>
</g>
<!-- 7FFFF656EEF0&#45;&gt;7FFFF656E2B0 -->
<g id="edge8" class="edge">
<title>7FFFF656EEF0&#45;&gt;7FFFF656E2B0</title>
<path fill="none" stroke="black" stroke-dasharray="5,2" d="M207.1,-36.13C196.27,-45.57 184.02,-58.17 176.5,-72 166.09,-91.15 161.38,-115.5 159.26,-133.89"/>
<polygon fill="black" stroke="black" points="158.28,-143.94 154.77,-133.55 158.76,-138.96 159.25,-133.99 159.25,-133.99 159.25,-133.99 158.76,-138.96 163.72,-134.42 158.28,-143.94 158.28,-143.94"/>
</g>
<!-- 7FFFF656EEF0&#45;&gt;7FFFF656E8D0 -->
<g id="edge7" class="edge">
<title>7FFFF656EEF0&#45;&gt;7FFFF656E8D0</title>
<path fill="none" stroke="black" stroke-dasharray="5,2" d="M186.18,-33.87C155.73,-44.37 114.06,-58.87 77.5,-72 75.9,-72.57 74.27,-73.16 72.63,-73.76"/>
<polygon fill="black" stroke="black" points="63.15,-77.22 71,-69.56 67.84,-75.5 72.54,-73.79 72.54,-73.79 72.54,-73.79 67.84,-75.5 74.08,-78.02 63.15,-77.22 63.15,-77.22"/>
</g>
<!-- 7FFFF656F510 -->
<g id="node12" class="node">
<title>7FFFF656F510</title>
<g id="a_node12"><a xlink:href="https://github.com/iLya2IK/wchttpserver/wiki/CustAbsHTTPApp" xlink:title="CustAbsHTTPApp">
<polygon fill="none" stroke="black" points="867,-180 772,-180 772,-184 760,-184 760,-144 867,-144 867,-180"/>
<polyline fill="none" stroke="black" points="760,-180 772,-180 "/>
<text text-anchor="middle" x="813.5" y="-158.9" font-family="Times,serif" font-size="12.00">CustAbsHTTPApp</text>
</a>
</g>
</g>
<!-- 7FFFF656F510&#45;&gt;7FFFF656B7D0 -->
<g id="edge2" class="edge">
<title>7FFFF656F510&#45;&gt;7FFFF656B7D0</title>
<path fill="none" stroke="black" stroke-dasharray="5,2" d="M759.74,-176.73C754.94,-177.87 750.13,-178.98 745.5,-180 660.11,-198.83 559.05,-217.18 505.74,-226.56"/>
<polygon fill="black" stroke="black" points="495.73,-228.31 504.81,-222.15 500.66,-227.45 505.58,-226.58 505.58,-226.58 505.58,-226.58 500.66,-227.45 506.36,-231.02 495.73,-228.31 495.73,-228.31"/>
</g>
<!-- 7FFFF656FB30 -->
<g id="node13" class="node">
<title>7FFFF656FB30</title>
<g id="a_node13"><a xlink:href="https://github.com/iLya2IK/wchttpserver/wiki/AbstractHTTPServer" xlink:title="AbstractHTTPServer">
<polygon fill="none" stroke="black" points="703,-180 598,-180 598,-184 586,-184 586,-144 703,-144 703,-180"/>
<polyline fill="none" stroke="black" points="586,-180 598,-180 "/>
<text text-anchor="middle" x="644.5" y="-158.9" font-family="Times,serif" font-size="12.00">AbstractHTTPServer</text>
</a>
</g>
</g>
<!-- 7FFFF656FB30&#45;&gt;7FFFF656B7D0 -->
<g id="edge1" class="edge">
<title>7FFFF656FB30&#45;&gt;7FFFF656B7D0</title>
<path fill="none" stroke="black" stroke-dasharray="5,2" d="M601.45,-180.12C571.86,-191.89 533.01,-207.34 504.95,-218.5"/>
<polygon fill="black" stroke="black" points="495.51,-222.26 503.14,-214.38 500.16,-220.41 504.8,-218.56 504.8,-218.56 504.8,-218.56 500.16,-220.41 506.47,-222.74 495.51,-222.26 495.51,-222.26"/>
</g>
</g>
</svg>
