<?xml version="1.0" encoding="UTF-8" standalone="no"?>
<!DOCTYPE svg PUBLIC "-//W3C//DTD SVG 1.1//EN"
 "http://www.w3.org/Graphics/SVG/1.1/DTD/svg11.dtd">
<!-- Generated by graphviz version 2.49.3 (0)
 -->
<!-- Title: g Pages: 1 -->
<svg width="1034pt" height="1490pt"
 viewBox="0.00 0.00 1034.00 1489.50" xmlns="http://www.w3.org/2000/svg" xmlns:xlink="http://www.w3.org/1999/xlink">
<g id="graph0" class="graph" transform="scale(1 1) rotate(0) translate(4 1485.5)">
<title>g</title>
<polygon fill="white" stroke="transparent" points="-4,4 -4,-1485.5 1030,-1485.5 1030,4 -4,4"/>
<!-- 7FFFF656B7B0 -->
<g id="node1" class="node">
<title>7FFFF656B7B0</title>
<g id="a_node1"><a xlink:href="https://github.com/iLya2IK/wchttpserver/wiki/wcNetworking-TWCRefProtoFrame" xlink:title="&lt;TABLE&gt;">
<polygon fill="#eeeeee" stroke="transparent" points="319,-272.5 319,-289.5 422,-289.5 422,-272.5 319,-272.5"/>
<text text-anchor="start" x="321" y="-277.9" font-family="Times,serif" font-size="12.00">TWCRefProtoFrame</text>
<polyline fill="none" stroke="black" points="422,-272.5 319,-272.5 "/>
<text text-anchor="start" x="321.5" y="-254.9" font-family="Times,serif" font-size="12.00">+</text>
<text text-anchor="start" x="333" y="-254.9" font-family="Times,serif" font-size="12.00">Memory(...)</text>
<text text-anchor="start" x="321.5" y="-237.9" font-family="Times,serif" font-size="12.00">+</text>
<text text-anchor="start" x="333" y="-237.9" font-family="Times,serif" font-size="12.00">SaveToStream(...)</text>
<text text-anchor="start" x="321.5" y="-220.9" font-family="Times,serif" font-size="12.00">+</text>
<text text-anchor="start" x="333" y="-220.9" font-family="Times,serif" font-size="12.00">Size(...)</text>
<polygon fill="none" stroke="black" points="317.5,-214.5 317.5,-290.5 422.5,-290.5 422.5,-214.5 317.5,-214.5"/>
</a>
</g>
</g>
<!-- 7FFFF6568630 -->
<g id="node2" class="node">
<title>7FFFF6568630</title>
<g id="a_node2"><a xlink:href="https://github.com/iLya2IK/wchttpserver/wiki/wcNetworking-TWCStringFrame" xlink:title="&lt;TABLE&gt;">
<polygon fill="#eeeeee" stroke="transparent" points="50,-505.5 50,-522.5 150,-522.5 150,-505.5 50,-505.5"/>
<text text-anchor="start" x="57" y="-510.9" font-family="Times,serif" font-size="12.00">TWCStringFrame</text>
<polyline fill="none" stroke="black" points="150,-505.5 50,-505.5 "/>
<text text-anchor="start" x="52" y="-487.9" font-family="Times,serif" font-size="12.00">+</text>
<text text-anchor="start" x="63" y="-487.9" font-family="Times,serif" font-size="12.00">Create(...)</text>
<text text-anchor="start" x="52" y="-470.9" font-family="Times,serif" font-size="12.00">+</text>
<text text-anchor="start" x="63" y="-470.9" font-family="Times,serif" font-size="12.00">Memory(...)</text>
<text text-anchor="start" x="52" y="-453.9" font-family="Times,serif" font-size="12.00">+</text>
<text text-anchor="start" x="63" y="-453.9" font-family="Times,serif" font-size="12.00">SaveToStream(...)</text>
<text text-anchor="start" x="52" y="-436.9" font-family="Times,serif" font-size="12.00">+</text>
<text text-anchor="start" x="63" y="-436.9" font-family="Times,serif" font-size="12.00">SetStrLength(...)</text>
<text text-anchor="start" x="52" y="-419.9" font-family="Times,serif" font-size="12.00">+</text>
<text text-anchor="start" x="63" y="-419.9" font-family="Times,serif" font-size="12.00">Size(...)</text>
<polygon fill="none" stroke="black" points="49,-413.5 49,-523.5 151,-523.5 151,-413.5 49,-413.5"/>
</a>
</g>
</g>
<!-- 7FFFF6568630&#45;&gt;7FFFF656B7B0 -->
<g id="edge20" class="edge">
<title>7FFFF6568630&#45;&gt;7FFFF656B7B0</title>
<path fill="none" stroke="black" stroke-width="2" d="M151.05,-423C171.36,-423 190,-423 190,-423 190,-423 190,-281 190,-281 190,-281 307.45,-281 307.45,-281"/>
<polygon fill="none" stroke="black" stroke-width="2" points="307.45,-284.5 317.45,-281 307.45,-277.5 307.45,-284.5"/>
</g>
<!-- 7FFFF6544B70 -->
<g id="node3" class="node">
<title>7FFFF6544B70</title>
<g id="a_node3"><a xlink:href="https://github.com/iLya2IK/wchttpserver/wiki/wcNetworking-TWCStringsFrame" xlink:title="&lt;TABLE&gt;">
<polygon fill="#eeeeee" stroke="transparent" points="22,-376.5 22,-393.5 178,-393.5 178,-376.5 22,-376.5"/>
<text text-anchor="start" x="54.5" y="-381.9" font-family="Times,serif" font-size="12.00">TWCStringsFrame</text>
<polyline fill="none" stroke="black" points="178,-376.5 22,-376.5 "/>
<text text-anchor="start" x="24" y="-358.9" font-family="Times,serif" font-size="12.00">+</text>
<text text-anchor="start" x="35" y="-358.9" font-family="Times,serif" font-size="12.00">Stream : TExtMemoryStream</text>
<polyline fill="none" stroke="black" points="178,-353.5 22,-353.5 "/>
<text text-anchor="start" x="24" y="-335.9" font-family="Times,serif" font-size="12.00">+</text>
<text text-anchor="start" x="35" y="-335.9" font-family="Times,serif" font-size="12.00">Create(...)</text>
<text text-anchor="start" x="24" y="-318.9" font-family="Times,serif" font-size="12.00">+</text>
<text text-anchor="start" x="35" y="-318.9" font-family="Times,serif" font-size="12.00">Destroy(...)</text>
<text text-anchor="start" x="24" y="-301.9" font-family="Times,serif" font-size="12.00">+</text>
<text text-anchor="start" x="35" y="-301.9" font-family="Times,serif" font-size="12.00">Memory(...)</text>
<text text-anchor="start" x="24" y="-284.9" font-family="Times,serif" font-size="12.00">+</text>
<text text-anchor="start" x="35" y="-284.9" font-family="Times,serif" font-size="12.00">SaveToStream(...)</text>
<text text-anchor="start" x="24" y="-267.9" font-family="Times,serif" font-size="12.00">+</text>
<text text-anchor="start" x="35" y="-267.9" font-family="Times,serif" font-size="12.00">Size(...)</text>
<polygon fill="none" stroke="black" points="21,-262 21,-395 179,-395 179,-262 21,-262"/>
</a>
</g>
</g>
<!-- 7FFFF6544B70&#45;&gt;7FFFF656B7B0 -->
<g id="edge21" class="edge">
<title>7FFFF6544B70&#45;&gt;7FFFF656B7B0</title>
<path fill="none" stroke="black" stroke-width="2" d="M179.18,-271.5C179.18,-271.5 307.3,-271.5 307.3,-271.5"/>
<polygon fill="none" stroke="black" stroke-width="2" points="307.3,-275 317.3,-271.5 307.3,-268 307.3,-275"/>
</g>
<!-- 7FFFF656D0D0 -->
<g id="node4" class="node">
<title>7FFFF656D0D0</title>
<g id="a_node4"><a xlink:href="https://github.com/iLya2IK/wchttpserver/wiki/wcNetworking-TWCStreamFrame" xlink:title="&lt;TABLE&gt;">
<polygon fill="#eeeeee" stroke="transparent" points="50,-225.5 50,-242.5 150,-242.5 150,-225.5 50,-225.5"/>
<text text-anchor="start" x="55" y="-230.9" font-family="Times,serif" font-size="12.00">TWCStreamFrame</text>
<polyline fill="none" stroke="black" points="150,-225.5 50,-225.5 "/>
<text text-anchor="start" x="52" y="-207.9" font-family="Times,serif" font-size="12.00">+</text>
<text text-anchor="start" x="63" y="-207.9" font-family="Times,serif" font-size="12.00">Stream : TStream</text>
<polyline fill="none" stroke="black" points="150,-202.5 50,-202.5 "/>
<text text-anchor="start" x="52" y="-184.9" font-family="Times,serif" font-size="12.00">+</text>
<text text-anchor="start" x="63" y="-184.9" font-family="Times,serif" font-size="12.00">Create(...)</text>
<text text-anchor="start" x="52" y="-167.9" font-family="Times,serif" font-size="12.00">+</text>
<text text-anchor="start" x="63" y="-167.9" font-family="Times,serif" font-size="12.00">Destroy(...)</text>
<text text-anchor="start" x="52" y="-150.9" font-family="Times,serif" font-size="12.00">+</text>
<text text-anchor="start" x="63" y="-150.9" font-family="Times,serif" font-size="12.00">Memory(...)</text>
<text text-anchor="start" x="52" y="-133.9" font-family="Times,serif" font-size="12.00">+</text>
<text text-anchor="start" x="63" y="-133.9" font-family="Times,serif" font-size="12.00">SaveToStream(...)</text>
<text text-anchor="start" x="52" y="-116.9" font-family="Times,serif" font-size="12.00">+</text>
<text text-anchor="start" x="63" y="-116.9" font-family="Times,serif" font-size="12.00">Size(...)</text>
<polygon fill="none" stroke="black" points="49,-111 49,-244 151,-244 151,-111 49,-111"/>
</a>
</g>
</g>
<!-- 7FFFF656D0D0&#45;&gt;7FFFF656B7B0 -->
<g id="edge19" class="edge">
<title>7FFFF656D0D0&#45;&gt;7FFFF656B7B0</title>
<path fill="none" stroke="black" stroke-width="2" d="M151.1,-229.25C151.1,-229.25 307.26,-229.25 307.26,-229.25"/>
<polygon fill="none" stroke="black" stroke-width="2" points="307.26,-232.75 317.26,-229.25 307.26,-225.75 307.26,-232.75"/>
</g>
<!-- 7FFFF6573F10 -->
<g id="node5" class="node">
<title>7FFFF6573F10</title>
<g id="a_node5"><a xlink:href="https://github.com/iLya2IK/wchttpserver/wiki/wcNetworking-TWCRefStreamFrame" xlink:title="&lt;TABLE&gt;">
<polygon fill="#eeeeee" stroke="transparent" points="45,-74.5 45,-91.5 155,-91.5 155,-74.5 45,-74.5"/>
<text text-anchor="start" x="47" y="-79.9" font-family="Times,serif" font-size="12.00">TWCRefStreamFrame</text>
<polyline fill="none" stroke="black" points="155,-74.5 45,-74.5 "/>
<text text-anchor="start" x="49.5" y="-56.9" font-family="Times,serif" font-size="12.00">+</text>
<text text-anchor="start" x="63" y="-56.9" font-family="Times,serif" font-size="12.00">Destroy(...)</text>
<text text-anchor="start" x="49.5" y="-39.9" font-family="Times,serif" font-size="12.00">+</text>
<text text-anchor="start" x="63" y="-39.9" font-family="Times,serif" font-size="12.00">Memory(...)</text>
<text text-anchor="start" x="49.5" y="-22.9" font-family="Times,serif" font-size="12.00">+</text>
<text text-anchor="start" x="63" y="-22.9" font-family="Times,serif" font-size="12.00">SaveToStream(...)</text>
<text text-anchor="start" x="49.5" y="-5.9" font-family="Times,serif" font-size="12.00">+</text>
<text text-anchor="start" x="63" y="-5.9" font-family="Times,serif" font-size="12.00">Size(...)</text>
<polygon fill="none" stroke="black" points="44,0 44,-93 156,-93 156,0 44,0"/>
</a>
</g>
</g>
<!-- 7FFFF6573F10&#45;&gt;7FFFF656B7B0 -->
<g id="edge16" class="edge">
<title>7FFFF6573F10&#45;&gt;7FFFF656B7B0</title>
<path fill="none" stroke="black" stroke-width="2" d="M156.27,-46.5C235.4,-46.5 370,-46.5 370,-46.5 370,-46.5 370,-204.24 370,-204.24"/>
<polygon fill="none" stroke="black" stroke-width="2" points="366.5,-204.24 370,-214.24 373.5,-204.24 366.5,-204.24"/>
</g>
<!-- 7FFFF6574530 -->
<g id="node6" class="node">
<title>7FFFF6574530</title>
<g id="a_node6"><a xlink:href="https://github.com/iLya2IK/wchttpserver/wiki/commonutils-TNetReferencedObject" xlink:title="&lt;TABLE&gt;">
<polygon fill="#eeeeee" stroke="transparent" points="839,-923.5 839,-940.5 1025,-940.5 1025,-923.5 839,-923.5"/>
<text text-anchor="start" x="841" y="-928.9" font-family="Times,serif" font-size="12.00">::commonutils::TNetReferencedObject</text>
<polygon fill="none" stroke="black" points="838,-923 838,-942 1026,-942 1026,-923 838,-923"/>
</a>
</g>
</g>
<!-- 7FFFF65652F0 -->
<g id="node7" class="node">
<title>7FFFF65652F0</title>
<g id="a_node7"><a xlink:href="https://github.com/iLya2IK/wchttpserver/wiki/wcNetworking-TWCRequestRefWrapper" xlink:title="&lt;TABLE&gt;">
<polygon fill="#eeeeee" stroke="transparent" points="594,-1260.5 594,-1277.5 748,-1277.5 748,-1260.5 594,-1260.5"/>
<text text-anchor="start" x="610.5" y="-1265.9" font-family="Times,serif" font-size="12.00">TWCRequestRefWrapper</text>
<polyline fill="none" stroke="black" points="748,-1260.5 594,-1260.5 "/>
<text text-anchor="start" x="596" y="-1242.9" font-family="Times,serif" font-size="12.00">+</text>
<text text-anchor="start" x="607" y="-1242.9" font-family="Times,serif" font-size="12.00">CopyToHTTP1Request(...)</text>
<text text-anchor="start" x="596" y="-1225.9" font-family="Times,serif" font-size="12.00">+</text>
<text text-anchor="start" x="607" y="-1225.9" font-family="Times,serif" font-size="12.00">GetReqContentStream(...)</text>
<text text-anchor="start" x="596" y="-1208.9" font-family="Times,serif" font-size="12.00">+</text>
<text text-anchor="start" x="607" y="-1208.9" font-family="Times,serif" font-size="12.00">IsReqContentStreamOwn(...)</text>
<text text-anchor="start" x="596" y="-1191.9" font-family="Times,serif" font-size="12.00">+</text>
<text text-anchor="start" x="607" y="-1191.9" font-family="Times,serif" font-size="12.00">Release(...)</text>
<polygon fill="none" stroke="black" points="593,-1186 593,-1279 749,-1279 749,-1186 593,-1186"/>
</a>
</g>
</g>
<!-- 7FFFF65652F0&#45;&gt;7FFFF6574530 -->
<g id="edge17" class="edge">
<title>7FFFF65652F0&#45;&gt;7FFFF6574530</title>
<path fill="none" stroke="black" stroke-width="2" d="M749.31,-1232.5C826.19,-1232.5 932,-1232.5 932,-1232.5 932,-1232.5 932,-952.14 932,-952.14"/>
<polygon fill="none" stroke="black" stroke-width="2" points="935.5,-952.14 932,-942.14 928.5,-952.14 935.5,-952.14"/>
</g>
<!-- 7FFFF6565910 -->
<g id="node8" class="node">
<title>7FFFF6565910</title>
<g id="a_node8"><a xlink:href="https://github.com/iLya2IK/wchttpserver/wiki/AbstractHTTPServer-TAbsHTTPCombinedContent" xlink:title="&lt;TABLE&gt;">
<polygon fill="#eeeeee" stroke="transparent" points="541,-1149.5 541,-1166.5 801,-1166.5 801,-1149.5 541,-1149.5"/>
<text text-anchor="start" x="543" y="-1154.9" font-family="Times,serif" font-size="12.00">::AbstractHTTPServer::TAbsHTTPCombinedContent</text>
<polyline fill="none" stroke="black" points="801,-1149.5 541,-1149.5 "/>
<text text-anchor="start" x="577.5" y="-1131.9" font-family="Times,serif" font-size="12.00">+</text>
<text text-anchor="start" x="623" y="-1131.9" font-family="Times,serif" font-size="12.00">OwnStream : Boolean</text>
<polyline fill="none" stroke="black" points="801,-1126.5 541,-1126.5 "/>
<text text-anchor="start" x="577.5" y="-1108.9" font-family="Times,serif" font-size="12.00">+</text>
<text text-anchor="start" x="623" y="-1108.9" font-family="Times,serif" font-size="12.00">Create(...)</text>
<text text-anchor="start" x="577.5" y="-1091.9" font-family="Times,serif" font-size="12.00">+</text>
<text text-anchor="start" x="623" y="-1091.9" font-family="Times,serif" font-size="12.00">Destroy(...)</text>
<polygon fill="none" stroke="black" points="540,-1085.5 540,-1167.5 802,-1167.5 802,-1085.5 540,-1085.5"/>
</a>
</g>
</g>
<!-- 7FFFF6565F30 -->
<g id="node9" class="node">
<title>7FFFF6565F30</title>
<g id="a_node9"><a xlink:href="https://github.com/iLya2IK/wchttpserver/wiki/wcNetworking-TWCContent" xlink:title="&lt;TABLE&gt;">
<polygon fill="#eeeeee" stroke="transparent" points="271,-1166.5 271,-1183.5 470,-1183.5 470,-1166.5 271,-1166.5"/>
<text text-anchor="start" x="338.5" y="-1171.9" font-family="Times,serif" font-size="12.00">TWCContent</text>
<polyline fill="none" stroke="black" points="470,-1166.5 271,-1166.5 "/>
<text text-anchor="start" x="273" y="-1148.9" font-family="Times,serif" font-size="12.00">+</text>
<text text-anchor="start" x="284" y="-1148.9" font-family="Times,serif" font-size="12.00">ContentType : TWCContentType</text>
<text text-anchor="start" x="273" y="-1131.9" font-family="Times,serif" font-size="12.00">+</text>
<text text-anchor="start" x="284" y="-1131.9" font-family="Times,serif" font-size="12.00">RequestRef : TWCRequestRefWrapper</text>
<polyline fill="none" stroke="black" points="470,-1126.5 271,-1126.5 "/>
<text text-anchor="start" x="273" y="-1108.9" font-family="Times,serif" font-size="12.00">+</text>
<text text-anchor="start" x="284" y="-1108.9" font-family="Times,serif" font-size="12.00">AsWideString(...)</text>
<text text-anchor="start" x="273" y="-1091.9" font-family="Times,serif" font-size="12.00">+</text>
<text text-anchor="start" x="284" y="-1091.9" font-family="Times,serif" font-size="12.00">Create(...)</text>
<text text-anchor="start" x="273" y="-1074.9" font-family="Times,serif" font-size="12.00">+</text>
<text text-anchor="start" x="284" y="-1074.9" font-family="Times,serif" font-size="12.00">Destroy(...)</text>
<polygon fill="none" stroke="black" points="269.5,-1068.5 269.5,-1184.5 470.5,-1184.5 470.5,-1068.5 269.5,-1068.5"/>
</a>
</g>
</g>
<!-- 7FFFF6565F30&#45;&gt;7FFFF65652F0 -->
<g id="edge10" class="edge">
<title>7FFFF6565F30:e&#45;&gt;7FFFF65652F0</title>
<path fill="none" stroke="black" stroke-dasharray="5,2" d="M465,-1147.5C465,-1147.5 465,-1197.33 465,-1197.33 465,-1197.33 534.55,-1197.33 592.83,-1197.33"/>
<polygon fill="none" stroke="black" points="465,-1147.5 461,-1141.5 465,-1135.5 469,-1141.5 465,-1147.5"/>
</g>
<!-- 7FFFF6565F30&#45;&gt;7FFFF6565910 -->
<g id="edge9" class="edge">
<title>7FFFF6565F30&#45;&gt;7FFFF6565910</title>
<path fill="none" stroke="black" stroke-width="2" d="M470.65,-1126.5C470.65,-1126.5 529.94,-1126.5 529.94,-1126.5"/>
<polygon fill="none" stroke="black" stroke-width="2" points="529.94,-1130 539.94,-1126.5 529.94,-1123 529.94,-1130"/>
</g>
<!-- 7FFFF6566550 -->
<g id="node10" class="node">
<title>7FFFF6566550</title>
<g id="a_node10"><a xlink:href="https://github.com/iLya2IK/wchttpserver/wiki/AbstractHTTPServer-TAbsHTTPConnectionRequest" xlink:title="&lt;TABLE&gt;">
<polygon fill="#eeeeee" stroke="transparent" points="237,-423.5 237,-440.5 503,-440.5 503,-423.5 237,-423.5"/>
<text text-anchor="start" x="239" y="-428.9" font-family="Times,serif" font-size="12.00">::AbstractHTTPServer::TAbsHTTPConnectionRequest</text>
<polyline fill="none" stroke="black" points="503,-423.5 237,-423.5 "/>
<text text-anchor="start" x="253.5" y="-405.9" font-family="Times,serif" font-size="12.00">+</text>
<text text-anchor="start" x="279" y="-405.9" font-family="Times,serif" font-size="12.00">Connection : TAbsHTTPConnection</text>
<text text-anchor="start" x="253.5" y="-388.9" font-family="Times,serif" font-size="12.00">+</text>
<text text-anchor="start" x="279" y="-388.9" font-family="Times,serif" font-size="12.00">Content : RawByteString</text>
<text text-anchor="start" x="253.5" y="-371.9" font-family="Times,serif" font-size="12.00">+</text>
<text text-anchor="start" x="279" y="-371.9" font-family="Times,serif" font-size="12.00">ContentClass : TAbsHTTPContentClass</text>
<text text-anchor="start" x="253.5" y="-354.9" font-family="Times,serif" font-size="12.00">+</text>
<text text-anchor="start" x="279" y="-354.9" font-family="Times,serif" font-size="12.00">ContentObject : TAbsHTTPContent</text>
<text text-anchor="start" x="253.5" y="-337.9" font-family="Times,serif" font-size="12.00">+</text>
<text text-anchor="start" x="279" y="-337.9" font-family="Times,serif" font-size="12.00">ContentStream : TStream</text>
<polyline fill="none" stroke="black" points="503,-332.5 237,-332.5 "/>
<text text-anchor="start" x="253.5" y="-314.9" font-family="Times,serif" font-size="12.00">+</text>
<text text-anchor="start" x="279" y="-314.9" font-family="Times,serif" font-size="12.00">Destroy(...)</text>
<polygon fill="none" stroke="black" points="236,-309 236,-442 504,-442 504,-309 236,-309"/>
</a>
</g>
</g>
<!-- 7FFFF656F030 -->
<g id="node13" class="node">
<title>7FFFF656F030</title>
<g id="a_node13"><a xlink:href="https://github.com/iLya2IK/wchttpserver/wiki/AbstractHTTPServer-TAbsHTTPConnection" xlink:title="&lt;TABLE&gt;">
<polygon fill="#eeeeee" stroke="transparent" points="557,-406.5 557,-423.5 785,-423.5 785,-406.5 557,-406.5"/>
<text text-anchor="start" x="559" y="-411.9" font-family="Times,serif" font-size="12.00">::AbstractHTTPServer::TAbsHTTPConnection</text>
<polyline fill="none" stroke="black" points="785,-406.5 557,-406.5 "/>
<text text-anchor="start" x="563" y="-388.9" font-family="Times,serif" font-size="12.00">+</text>
<text text-anchor="start" x="578" y="-388.9" font-family="Times,serif" font-size="12.00">LookupHostNames : Boolean</text>
<text text-anchor="start" x="563" y="-371.9" font-family="Times,serif" font-size="12.00">+</text>
<text text-anchor="start" x="578" y="-371.9" font-family="Times,serif" font-size="12.00">OnRequestError : TRequestErrorHandler</text>
<text text-anchor="start" x="563" y="-354.9" font-family="Times,serif" font-size="12.00">+</text>
<text text-anchor="start" x="578" y="-354.9" font-family="Times,serif" font-size="12.00">Server : TAbsCustomHttpServer</text>
<text text-anchor="start" x="563" y="-337.9" font-family="Times,serif" font-size="12.00">+</text>
<text text-anchor="start" x="578" y="-337.9" font-family="Times,serif" font-size="12.00">Socket : TSocketStream</text>
<polyline fill="none" stroke="black" points="785,-332.5 557,-332.5 "/>
<text text-anchor="start" x="563" y="-314.9" font-family="Times,serif" font-size="12.00">+</text>
<text text-anchor="start" x="578" y="-314.9" font-family="Times,serif" font-size="12.00">Create(...)</text>
<text text-anchor="start" x="563" y="-297.9" font-family="Times,serif" font-size="12.00">+</text>
<text text-anchor="start" x="578" y="-297.9" font-family="Times,serif" font-size="12.00">Destroy(...)</text>
<polygon fill="none" stroke="black" points="556,-292 556,-425 786,-425 786,-292 556,-292"/>
</a>
</g>
</g>
<!-- 7FFFF6566550&#45;&gt;7FFFF656F030 -->
<g id="edge1" class="edge">
<title>7FFFF6566550:e&#45;&gt;7FFFF656F030</title>
<path fill="none" stroke="black" stroke-dasharray="5,2" d="M515,-367C515,-367 555.7,-367 555.7,-367"/>
<polygon fill="none" stroke="black" points="515,-367 509,-371 503,-367 509,-363 515,-367"/>
</g>
<!-- 7FFFF656E3F0 -->
<g id="node11" class="node">
<title>7FFFF656E3F0</title>
<g id="a_node11"><a xlink:href="https://github.com/iLya2IK/wchttpserver/wiki/wcNetworking-TWCConnectionRequest" xlink:title="&lt;TABLE&gt;">
<polygon fill="#eeeeee" stroke="transparent" points="28,-877.5 28,-894.5 173,-894.5 173,-877.5 28,-877.5"/>
<text text-anchor="start" x="41" y="-882.9" font-family="Times,serif" font-size="12.00">TWCConnectionRequest</text>
<polyline fill="none" stroke="black" points="173,-877.5 28,-877.5 "/>
<text text-anchor="start" x="30" y="-859.9" font-family="Times,serif" font-size="12.00">+</text>
<text text-anchor="start" x="41" y="-859.9" font-family="Times,serif" font-size="12.00">WCContent : TWCContent</text>
<polyline fill="none" stroke="black" points="173,-854.5 28,-854.5 "/>
<text text-anchor="start" x="30" y="-836.9" font-family="Times,serif" font-size="12.00">+</text>
<text text-anchor="start" x="41" y="-836.9" font-family="Times,serif" font-size="12.00">Create(...)</text>
<polygon fill="none" stroke="black" points="26.5,-831 26.5,-896 173.5,-896 173.5,-831 26.5,-831"/>
</a>
</g>
</g>
<!-- 7FFFF656E3F0&#45;&gt;7FFFF6565F30 -->
<g id="edge8" class="edge">
<title>7FFFF656E3F0:e&#45;&gt;7FFFF6565F30</title>
<path fill="none" stroke="black" stroke-dasharray="5,2" d="M185,-863.5C185,-863.5 287,-863.5 287,-863.5 287,-863.5 287,-991.01 287,-1068.46"/>
<polygon fill="none" stroke="black" points="185,-863.5 179,-867.5 173,-863.5 179,-859.5 185,-863.5"/>
</g>
<!-- 7FFFF656E3F0&#45;&gt;7FFFF6566550 -->
<g id="edge7" class="edge">
<title>7FFFF656E3F0&#45;&gt;7FFFF6566550</title>
<path fill="none" stroke="black" stroke-width="2" d="M163,-830.75C163,-730.17 163,-432.5 163,-432.5 163,-432.5 225.98,-432.5 225.98,-432.5"/>
<polygon fill="none" stroke="black" stroke-width="2" points="225.98,-436 235.98,-432.5 225.98,-429 225.98,-436"/>
</g>
<!-- 7FFFF656EA10 -->
<g id="node12" class="node">
<title>7FFFF656EA10</title>
<g id="a_node12"><a xlink:href="https://github.com/iLya2IK/wchttpserver/wiki/wcNetworking-TWCSocketReference" xlink:title="&lt;TABLE&gt;">
<polygon fill="#eeeeee" stroke="transparent" points="606,-761.5 606,-778.5 736,-778.5 736,-761.5 606,-761.5"/>
<text text-anchor="start" x="618" y="-766.9" font-family="Times,serif" font-size="12.00">TWCSocketReference</text>
<polyline fill="none" stroke="black" points="736,-761.5 606,-761.5 "/>
<text text-anchor="start" x="608" y="-743.9" font-family="Times,serif" font-size="12.00">+</text>
<text text-anchor="start" x="619" y="-743.9" font-family="Times,serif" font-size="12.00">Socket : TSocketStream</text>
<text text-anchor="start" x="608" y="-726.9" font-family="Times,serif" font-size="12.00">+</text>
<text text-anchor="start" x="619" y="-726.9" font-family="Times,serif" font-size="12.00">States : TSocketStates</text>
<polyline fill="none" stroke="black" points="736,-721.5 606,-721.5 "/>
<text text-anchor="start" x="608" y="-703.9" font-family="Times,serif" font-size="12.00">+</text>
<text text-anchor="start" x="619" y="-703.9" font-family="Times,serif" font-size="12.00">CanRead(...)</text>
<text text-anchor="start" x="608" y="-686.9" font-family="Times,serif" font-size="12.00">+</text>
<text text-anchor="start" x="619" y="-686.9" font-family="Times,serif" font-size="12.00">CanSend(...)</text>
<text text-anchor="start" x="608" y="-669.9" font-family="Times,serif" font-size="12.00">+</text>
<text text-anchor="start" x="619" y="-669.9" font-family="Times,serif" font-size="12.00">Create(...)</text>
<text text-anchor="start" x="608" y="-652.9" font-family="Times,serif" font-size="12.00">+</text>
<text text-anchor="start" x="619" y="-652.9" font-family="Times,serif" font-size="12.00">Destroy(...)</text>
<text text-anchor="start" x="608" y="-635.9" font-family="Times,serif" font-size="12.00">+</text>
<text text-anchor="start" x="619" y="-635.9" font-family="Times,serif" font-size="12.00">HasErrors(...)</text>
<text text-anchor="start" x="608" y="-618.9" font-family="Times,serif" font-size="12.00">+</text>
<text text-anchor="start" x="619" y="-618.9" font-family="Times,serif" font-size="12.00">HasNoErrors(...)</text>
<text text-anchor="start" x="608" y="-601.9" font-family="Times,serif" font-size="12.00">+</text>
<text text-anchor="start" x="619" y="-601.9" font-family="Times,serif" font-size="12.00">PushError(...)</text>
<text text-anchor="start" x="608" y="-584.9" font-family="Times,serif" font-size="12.00">+</text>
<text text-anchor="start" x="619" y="-584.9" font-family="Times,serif" font-size="12.00">Read(...)</text>
<text text-anchor="start" x="608" y="-567.9" font-family="Times,serif" font-size="12.00">+</text>
<text text-anchor="start" x="619" y="-567.9" font-family="Times,serif" font-size="12.00">SetCanRead(...)</text>
<text text-anchor="start" x="608" y="-550.9" font-family="Times,serif" font-size="12.00">+</text>
<text text-anchor="start" x="619" y="-550.9" font-family="Times,serif" font-size="12.00">SetCanSend(...)</text>
<text text-anchor="start" x="608" y="-533.9" font-family="Times,serif" font-size="12.00">+</text>
<text text-anchor="start" x="619" y="-533.9" font-family="Times,serif" font-size="12.00">SoftClose(...)</text>
<text text-anchor="start" x="608" y="-516.9" font-family="Times,serif" font-size="12.00">+</text>
<text text-anchor="start" x="619" y="-516.9" font-family="Times,serif" font-size="12.00">StartReading(...)</text>
<text text-anchor="start" x="608" y="-499.9" font-family="Times,serif" font-size="12.00">+</text>
<text text-anchor="start" x="619" y="-499.9" font-family="Times,serif" font-size="12.00">StartSending(...)</text>
<text text-anchor="start" x="608" y="-482.9" font-family="Times,serif" font-size="12.00">+</text>
<text text-anchor="start" x="619" y="-482.9" font-family="Times,serif" font-size="12.00">StopReading(...)</text>
<text text-anchor="start" x="608" y="-465.9" font-family="Times,serif" font-size="12.00">+</text>
<text text-anchor="start" x="619" y="-465.9" font-family="Times,serif" font-size="12.00">StopSending(...)</text>
<text text-anchor="start" x="608" y="-448.9" font-family="Times,serif" font-size="12.00">+</text>
<text text-anchor="start" x="619" y="-448.9" font-family="Times,serif" font-size="12.00">Write(...)</text>
<polygon fill="none" stroke="black" points="605,-443 605,-780 737,-780 737,-443 605,-443"/>
</a>
</g>
</g>
<!-- 7FFFF656EA10&#45;&gt;7FFFF6574530 -->
<g id="edge18" class="edge">
<title>7FFFF656EA10&#45;&gt;7FFFF6574530</title>
<path fill="none" stroke="black" stroke-width="2" d="M737.2,-611.5C814.52,-611.5 932,-611.5 932,-611.5 932,-611.5 932,-912.89 932,-912.89"/>
<polygon fill="none" stroke="black" stroke-width="2" points="928.5,-912.89 932,-922.89 935.5,-912.89 928.5,-912.89"/>
</g>
<!-- 7FFFF656F650 -->
<g id="node14" class="node">
<title>7FFFF656F650</title>
<g id="a_node14"><a xlink:href="https://github.com/iLya2IK/wchttpserver/wiki/wcNetworking-TWCRefConnection" xlink:title="&lt;TABLE&gt;">
<polygon fill="#eeeeee" stroke="transparent" points="567,-1048.5 567,-1065.5 775,-1065.5 775,-1048.5 567,-1048.5"/>
<text text-anchor="start" x="622" y="-1053.9" font-family="Times,serif" font-size="12.00">TWCRefConnection</text>
<polyline fill="none" stroke="black" points="775,-1048.5 567,-1048.5 "/>
<text text-anchor="start" x="569" y="-1030.9" font-family="Times,serif" font-size="12.00">+</text>
<text text-anchor="start" x="580" y="-1030.9" font-family="Times,serif" font-size="12.00">ConnectionState : TWCConnectionState</text>
<text text-anchor="start" x="569" y="-1013.9" font-family="Times,serif" font-size="12.00">+</text>
<text text-anchor="start" x="580" y="-1013.9" font-family="Times,serif" font-size="12.00">ErrorData : Pointer</text>
<text text-anchor="start" x="569" y="-996.9" font-family="Times,serif" font-size="12.00">+</text>
<text text-anchor="start" x="580" y="-996.9" font-family="Times,serif" font-size="12.00">ErrorDataSize : Cardinal</text>
<text text-anchor="start" x="569" y="-979.9" font-family="Times,serif" font-size="12.00">+</text>
<text text-anchor="start" x="580" y="-979.9" font-family="Times,serif" font-size="12.00">LastError : Cardinal</text>
<text text-anchor="start" x="569" y="-962.9" font-family="Times,serif" font-size="12.00">+</text>
<text text-anchor="start" x="580" y="-962.9" font-family="Times,serif" font-size="12.00">Socket : Cardinal</text>
<polyline fill="none" stroke="black" points="775,-957.5 567,-957.5 "/>
<text text-anchor="start" x="569" y="-939.9" font-family="Times,serif" font-size="12.00">+</text>
<text text-anchor="start" x="580" y="-939.9" font-family="Times,serif" font-size="12.00">ConnectionAvaible(...)</text>
<text text-anchor="start" x="569" y="-922.9" font-family="Times,serif" font-size="12.00">+</text>
<text text-anchor="start" x="580" y="-922.9" font-family="Times,serif" font-size="12.00">ConsumeNextFrame(...)</text>
<text text-anchor="start" x="569" y="-905.9" font-family="Times,serif" font-size="12.00">+</text>
<text text-anchor="start" x="580" y="-905.9" font-family="Times,serif" font-size="12.00">Create(...)</text>
<text text-anchor="start" x="569" y="-888.9" font-family="Times,serif" font-size="12.00">+</text>
<text text-anchor="start" x="580" y="-888.9" font-family="Times,serif" font-size="12.00">Destroy(...)</text>
<text text-anchor="start" x="569" y="-871.9" font-family="Times,serif" font-size="12.00">+</text>
<text text-anchor="start" x="580" y="-871.9" font-family="Times,serif" font-size="12.00">GetLifeTime(...)</text>
<text text-anchor="start" x="569" y="-854.9" font-family="Times,serif" font-size="12.00">+</text>
<text text-anchor="start" x="580" y="-854.9" font-family="Times,serif" font-size="12.00">PushFrameFront(...)</text>
<text text-anchor="start" x="569" y="-837.9" font-family="Times,serif" font-size="12.00">+</text>
<text text-anchor="start" x="580" y="-837.9" font-family="Times,serif" font-size="12.00">ReleaseRead(...)</text>
<text text-anchor="start" x="569" y="-820.9" font-family="Times,serif" font-size="12.00">+</text>
<text text-anchor="start" x="580" y="-820.9" font-family="Times,serif" font-size="12.00">SendFrames(...)</text>
<text text-anchor="start" x="569" y="-803.9" font-family="Times,serif" font-size="12.00">+</text>
<text text-anchor="start" x="580" y="-803.9" font-family="Times,serif" font-size="12.00">TryToIdleStep(...)</text>
<polygon fill="none" stroke="black" points="566,-798 566,-1067 776,-1067 776,-798 566,-798"/>
</a>
</g>
</g>
<!-- 7FFFF656F650&#45;&gt;7FFFF6574530 -->
<g id="edge13" class="edge">
<title>7FFFF656F650&#45;&gt;7FFFF6574530</title>
<path fill="none" stroke="black" stroke-width="2" d="M776.03,-932.5C776.03,-932.5 827.72,-932.5 827.72,-932.5"/>
<polygon fill="none" stroke="black" stroke-width="2" points="827.72,-936 837.72,-932.5 827.72,-929 827.72,-936"/>
</g>
<!-- 7FFFF656FC70 -->
<g id="node15" class="node">
<title>7FFFF656FC70</title>
<g id="a_node15"><a xlink:href="https://github.com/iLya2IK/wchttpserver/wiki/wcNetworking-TWCConnection" xlink:title="&lt;TABLE&gt;">
<polygon fill="#eeeeee" stroke="transparent" points="265,-762.5 265,-779.5 475,-779.5 475,-762.5 265,-762.5"/>
<text text-anchor="start" x="329" y="-767.9" font-family="Times,serif" font-size="12.00">TWCConnection</text>
<polyline fill="none" stroke="black" points="475,-762.5 265,-762.5 "/>
<text text-anchor="start" x="267" y="-744.9" font-family="Times,serif" font-size="12.00">+</text>
<text text-anchor="start" x="278" y="-744.9" font-family="Times,serif" font-size="12.00">RefCon : TWCRefConnection</text>
<text text-anchor="start" x="267" y="-727.9" font-family="Times,serif" font-size="12.00">+</text>
<text text-anchor="start" x="278" y="-727.9" font-family="Times,serif" font-size="12.00">RefRequest : TWCRequestRefWrapper</text>
<text text-anchor="start" x="267" y="-710.9" font-family="Times,serif" font-size="12.00">+</text>
<text text-anchor="start" x="278" y="-710.9" font-family="Times,serif" font-size="12.00">SocketReference : TWCSocketReference</text>
<polyline fill="none" stroke="black" points="475,-705.5 265,-705.5 "/>
<text text-anchor="start" x="267" y="-687.9" font-family="Times,serif" font-size="12.00">+</text>
<text text-anchor="start" x="278" y="-687.9" font-family="Times,serif" font-size="12.00">Create(...)</text>
<text text-anchor="start" x="267" y="-670.9" font-family="Times,serif" font-size="12.00">+</text>
<text text-anchor="start" x="278" y="-670.9" font-family="Times,serif" font-size="12.00">CreateRefered(...)</text>
<text text-anchor="start" x="267" y="-653.9" font-family="Times,serif" font-size="12.00">+</text>
<text text-anchor="start" x="278" y="-653.9" font-family="Times,serif" font-size="12.00">DecSocketReference(...)</text>
<text text-anchor="start" x="267" y="-636.9" font-family="Times,serif" font-size="12.00">+</text>
<text text-anchor="start" x="278" y="-636.9" font-family="Times,serif" font-size="12.00">Destroy(...)</text>
<text text-anchor="start" x="267" y="-619.9" font-family="Times,serif" font-size="12.00">+</text>
<text text-anchor="start" x="278" y="-619.9" font-family="Times,serif" font-size="12.00">IncSocketReference(...)</text>
<polygon fill="none" stroke="black" points="264,-614 264,-781 476,-781 476,-614 264,-614"/>
</a>
</g>
</g>
<!-- 7FFFF656FC70&#45;&gt;7FFFF65652F0 -->
<g id="edge6" class="edge">
<title>7FFFF656FC70:e&#45;&gt;7FFFF65652F0</title>
<path fill="none" stroke="black" stroke-dasharray="5,2" d="M487,-655.5C487,-655.5 490,-655.5 490,-655.5 490,-655.5 490,-1191.67 490,-1191.67 490,-1191.67 543.94,-1191.67 592.93,-1191.67"/>
<polygon fill="none" stroke="black" points="487,-655.5 481,-659.5 475,-655.5 481,-651.5 487,-655.5"/>
</g>
<!-- 7FFFF656FC70&#45;&gt;7FFFF656EA10 -->
<g id="edge4" class="edge">
<title>7FFFF656FC70:e&#45;&gt;7FFFF656EA10</title>
<path fill="none" stroke="black" stroke-dasharray="5,2" d="M487,-738.5C487,-738.5 604.92,-738.5 604.92,-738.5"/>
<polygon fill="none" stroke="black" points="487,-738.5 481,-742.5 475,-738.5 481,-734.5 487,-738.5"/>
</g>
<!-- 7FFFF656FC70&#45;&gt;7FFFF656F030 -->
<g id="edge3" class="edge">
<title>7FFFF656FC70&#45;&gt;7FFFF656F030</title>
<path fill="none" stroke="black" stroke-width="2" d="M476.11,-697C520.07,-697 561,-697 561,-697 561,-697 561,-435.38 561,-435.38"/>
<polygon fill="none" stroke="black" stroke-width="2" points="564.5,-435.38 561,-425.38 557.5,-435.38 564.5,-435.38"/>
</g>
<!-- 7FFFF656FC70&#45;&gt;7FFFF656F650 -->
<g id="edge5" class="edge">
<title>7FFFF656FC70:e&#45;&gt;7FFFF656F650</title>
<path fill="none" stroke="black" stroke-dasharray="5,2" d="M454,-760.5C454,-760.5 454,-814.5 454,-814.5 454,-814.5 510.61,-814.5 566,-814.5"/>
<polygon fill="none" stroke="black" points="454,-760.5 450,-754.5 454,-748.5 458,-754.5 454,-760.5"/>
</g>
<!-- 7FFFF6570290 -->
<g id="node16" class="node">
<title>7FFFF6570290</title>
<g id="a_node16"><a xlink:href="https://github.com/iLya2IK/wchttpserver/wiki/commonutils-TThreadSafeObject" xlink:title="&lt;TABLE&gt;">
<polygon fill="#eeeeee" stroke="transparent" points="284,-1203.5 284,-1220.5 456,-1220.5 456,-1203.5 284,-1203.5"/>
<text text-anchor="start" x="286.5" y="-1208.9" font-family="Times,serif" font-size="12.00">::commonutils::TThreadSafeObject</text>
<polygon fill="none" stroke="black" points="283,-1203 283,-1222 457,-1222 457,-1203 283,-1203"/>
</a>
</g>
</g>
<!-- 7FFFF65708B0 -->
<g id="node17" class="node">
<title>7FFFF65708B0</title>
<g id="a_node17"><a xlink:href="https://github.com/iLya2IK/wchttpserver/wiki/wcNetworking-TThreadSafeConnectionState" xlink:title="&lt;TABLE&gt;">
<polygon fill="#eeeeee" stroke="transparent" points="22,-1226.5 22,-1243.5 179,-1243.5 179,-1226.5 22,-1226.5"/>
<text text-anchor="start" x="29.5" y="-1231.9" font-family="Times,serif" font-size="12.00">TThreadSafeConnectionState</text>
<polyline fill="none" stroke="black" points="179,-1226.5 22,-1226.5 "/>
<text text-anchor="start" x="24" y="-1208.9" font-family="Times,serif" font-size="12.00">+</text>
<text text-anchor="start" x="35" y="-1208.9" font-family="Times,serif" font-size="12.00">Value : TWCConnectionState</text>
<polyline fill="none" stroke="black" points="179,-1203.5 22,-1203.5 "/>
<text text-anchor="start" x="24" y="-1185.9" font-family="Times,serif" font-size="12.00">+</text>
<text text-anchor="start" x="35" y="-1185.9" font-family="Times,serif" font-size="12.00">Create(...)</text>
<polygon fill="none" stroke="black" points="20.5,-1180 20.5,-1245 179.5,-1245 179.5,-1180 20.5,-1180"/>
</a>
</g>
</g>
<!-- 7FFFF65708B0&#45;&gt;7FFFF6570290 -->
<g id="edge2" class="edge">
<title>7FFFF65708B0&#45;&gt;7FFFF6570290</title>
<path fill="none" stroke="black" stroke-width="2" d="M179.55,-1212.5C179.55,-1212.5 272.53,-1212.5 272.53,-1212.5"/>
<polygon fill="none" stroke="black" stroke-width="2" points="272.53,-1216 282.53,-1212.5 272.53,-1209 272.53,-1216"/>
</g>
<!-- 7FFFF6570ED0 -->
<g id="node18" class="node">
<title>7FFFF6570ED0</title>
<g id="a_node18"><a xlink:href="https://github.com/iLya2IK/wchttpserver/wiki/wcNetworking-TWCRefConnections" xlink:title="&lt;TABLE&gt;">
<polygon fill="#eeeeee" stroke="transparent" points="1,-1463.5 1,-1480.5 199,-1480.5 199,-1463.5 1,-1463.5"/>
<text text-anchor="start" x="48.5" y="-1468.9" font-family="Times,serif" font-size="12.00">TWCRefConnections</text>
<polyline fill="none" stroke="black" points="199,-1463.5 1,-1463.5 "/>
<text text-anchor="start" x="3" y="-1445.9" font-family="Times,serif" font-size="12.00">+</text>
<text text-anchor="start" x="14" y="-1445.9" font-family="Times,serif" font-size="12.00">GarbageCollector : TNetReferenceList</text>
<text text-anchor="start" x="3" y="-1428.9" font-family="Times,serif" font-size="12.00">+</text>
<text text-anchor="start" x="14" y="-1428.9" font-family="Times,serif" font-size="12.00">Protocol : TWCProtocolHelper</text>
<polyline fill="none" stroke="black" points="199,-1423.5 1,-1423.5 "/>
<text text-anchor="start" x="3" y="-1405.9" font-family="Times,serif" font-size="12.00">+</text>
<text text-anchor="start" x="14" y="-1405.9" font-family="Times,serif" font-size="12.00">AddConnection(...)</text>
<text text-anchor="start" x="3" y="-1388.9" font-family="Times,serif" font-size="12.00">+</text>
<text text-anchor="start" x="14" y="-1388.9" font-family="Times,serif" font-size="12.00">CloseAll(...)</text>
<text text-anchor="start" x="3" y="-1371.9" font-family="Times,serif" font-size="12.00">+</text>
<text text-anchor="start" x="14" y="-1371.9" font-family="Times,serif" font-size="12.00">Create(...)</text>
<text text-anchor="start" x="3" y="-1354.9" font-family="Times,serif" font-size="12.00">+</text>
<text text-anchor="start" x="14" y="-1354.9" font-family="Times,serif" font-size="12.00">Destroy(...)</text>
<text text-anchor="start" x="3" y="-1337.9" font-family="Times,serif" font-size="12.00">+</text>
<text text-anchor="start" x="14" y="-1337.9" font-family="Times,serif" font-size="12.00">GetByHandle(...)</text>
<text text-anchor="start" x="3" y="-1320.9" font-family="Times,serif" font-size="12.00">+</text>
<text text-anchor="start" x="14" y="-1320.9" font-family="Times,serif" font-size="12.00">Idle(...)</text>
<text text-anchor="start" x="3" y="-1303.9" font-family="Times,serif" font-size="12.00">+</text>
<text text-anchor="start" x="14" y="-1303.9" font-family="Times,serif" font-size="12.00">PushSocketError(...)</text>
<text text-anchor="start" x="3" y="-1286.9" font-family="Times,serif" font-size="12.00">+</text>
<text text-anchor="start" x="14" y="-1286.9" font-family="Times,serif" font-size="12.00">RegisterProtocolHelper(...)</text>
<text text-anchor="start" x="3" y="-1269.9" font-family="Times,serif" font-size="12.00">+</text>
<text text-anchor="start" x="14" y="-1269.9" font-family="Times,serif" font-size="12.00">RemoveDeadConnections(...)</text>
<polygon fill="none" stroke="black" points="0,-1263.5 0,-1481.5 200,-1481.5 200,-1263.5 0,-1263.5"/>
</a>
</g>
</g>
<!-- 7FFFF65714F0 -->
<g id="node19" class="node">
<title>7FFFF65714F0</title>
<g id="a_node19"><a xlink:href="https://github.com/iLya2IK/wchttpserver/wiki/commonutils-TThreadSafeFastSeq" xlink:title="&lt;TABLE&gt;">
<polygon fill="#eeeeee" stroke="transparent" points="282,-1363.5 282,-1380.5 458,-1380.5 458,-1363.5 282,-1363.5"/>
<text text-anchor="start" x="284" y="-1368.9" font-family="Times,serif" font-size="12.00">::commonutils::TThreadSafeFastSeq</text>
<polygon fill="none" stroke="black" points="281,-1363 281,-1382 459,-1382 459,-1363 281,-1363"/>
</a>
</g>
</g>
<!-- 7FFFF6570ED0&#45;&gt;7FFFF65714F0 -->
<g id="edge14" class="edge">
<title>7FFFF6570ED0&#45;&gt;7FFFF65714F0</title>
<path fill="none" stroke="black" stroke-width="2" d="M200.15,-1372.5C200.15,-1372.5 270.69,-1372.5 270.69,-1372.5"/>
<polygon fill="none" stroke="black" stroke-width="2" points="270.69,-1376 280.69,-1372.5 270.69,-1369 270.69,-1376"/>
</g>
<!-- 7FFFF6572750 -->
<g id="node22" class="node">
<title>7FFFF6572750</title>
<g id="a_node22"><a xlink:href="https://github.com/iLya2IK/wchttpserver/wiki/wcNetworking-TWCProtocolHelper" xlink:title="&lt;TABLE&gt;">
<polygon fill="#eeeeee" stroke="transparent" points="318,-1423.5 318,-1440.5 422,-1440.5 422,-1423.5 318,-1423.5"/>
<text text-anchor="start" x="320.5" y="-1428.9" font-family="Times,serif" font-size="12.00">TWCProtocolHelper</text>
<polygon fill="none" stroke="black" points="317,-1423 317,-1442 423,-1442 423,-1423 317,-1423"/>
</a>
</g>
</g>
<!-- 7FFFF6570ED0&#45;&gt;7FFFF6572750 -->
<g id="edge15" class="edge">
<title>7FFFF6570ED0:e&#45;&gt;7FFFF6572750</title>
<path fill="none" stroke="black" stroke-dasharray="5,2" d="M211,-1432.5C211,-1432.5 316.83,-1432.5 316.83,-1432.5"/>
<polygon fill="none" stroke="black" points="211,-1432.5 205,-1436.5 199,-1432.5 205,-1428.5 211,-1432.5"/>
</g>
<!-- 7FFFF6571B10 -->
<g id="node20" class="node">
<title>7FFFF6571B10</title>
<g id="a_node20"><a xlink:href="https://github.com/iLya2IK/wchttpserver/wiki/wcNetworking-TWCHTTP11Connection" xlink:title="&lt;TABLE&gt;">
<polygon fill="#eeeeee" stroke="transparent" points="305,-943.5 305,-960.5 435,-960.5 435,-943.5 305,-943.5"/>
<text text-anchor="start" x="308" y="-948.9" font-family="Times,serif" font-size="12.00">TWCHTTP11Connection</text>
<polyline fill="none" stroke="black" points="435,-943.5 305,-943.5 "/>
<text text-anchor="start" x="307" y="-925.9" font-family="Times,serif" font-size="12.00">+</text>
<text text-anchor="start" x="318" y="-925.9" font-family="Times,serif" font-size="12.00">ConsumeNextFrame(...)</text>
<text text-anchor="start" x="307" y="-908.9" font-family="Times,serif" font-size="12.00">+</text>
<text text-anchor="start" x="318" y="-908.9" font-family="Times,serif" font-size="12.00">Create(...)</text>
<polygon fill="none" stroke="black" points="304,-903 304,-962 436,-962 436,-903 304,-903"/>
</a>
</g>
</g>
<!-- 7FFFF6571B10&#45;&gt;7FFFF656F650 -->
<g id="edge11" class="edge">
<title>7FFFF6571B10&#45;&gt;7FFFF656F650</title>
<path fill="none" stroke="black" stroke-width="2" d="M436.06,-932.5C436.06,-932.5 555.77,-932.5 555.77,-932.5"/>
<polygon fill="none" stroke="black" stroke-width="2" points="555.77,-936 565.77,-932.5 555.77,-929 555.77,-936"/>
</g>
<!-- 7FFFF6572130 -->
<g id="node21" class="node">
<title>7FFFF6572130</title>
<g id="a_node21"><a xlink:href="https://github.com/iLya2IK/wchttpserver/wiki/commonutils-TNetCustomLockedObject" xlink:title="&lt;TABLE&gt;">
<polygon fill="#eeeeee" stroke="transparent" points="568,-1423.5 568,-1440.5 774,-1440.5 774,-1423.5 568,-1423.5"/>
<text text-anchor="start" x="570" y="-1428.9" font-family="Times,serif" font-size="12.00">::commonutils::TNetCustomLockedObject</text>
<polygon fill="none" stroke="black" points="567,-1423 567,-1442 775,-1442 775,-1423 567,-1423"/>
</a>
</g>
</g>
<!-- 7FFFF6572750&#45;&gt;7FFFF6572130 -->
<g id="edge12" class="edge">
<title>7FFFF6572750&#45;&gt;7FFFF6572130</title>
<path fill="none" stroke="black" stroke-width="2" d="M423.12,-1432.5C423.12,-1432.5 556.98,-1432.5 556.98,-1432.5"/>
<polygon fill="none" stroke="black" stroke-width="2" points="556.98,-1436 566.98,-1432.5 556.98,-1429 556.98,-1436"/>
</g>
</g>
</svg>
